<svg xmlns="http://www.w3.org/2000/svg" width="479" height="521" viewBox="0 0 479 521">
<g>
<path d="M 422.71 400.74 C416.56,402.95 413.58,403.37 402.50,403.57 C395.35,403.70 388.15,403.63 386.50,403.41 C356.03,399.32 327.63,391.44 297.50,378.72 C257.03,361.62 238.58,352.70 210.89,336.84 C193.47,326.86 157.78,302.61 153.00,297.50 L 150.50 294.83 L 150.55 252.17 C150.60,207.65 151.31,197.96 156.55,171.00 C157.35,166.88 159.14,157.46 160.54,150.07 C163.55,134.06 169.93,108.40 173.45,98.10 C177.31,86.82 187.84,63.51 193.38,54.00 C204.27,35.29 219.05,19.26 230.35,13.91 C249.62,4.79 269.31,15.98 288.04,46.69 C296.36,60.33 306.59,82.14 311.56,96.82 C315.87,109.52 315.68,111.11 309.77,112.07 L 306.26 112.64 L 305.10 107.57 C303.56,100.86 293.98,76.99 287.86,64.64 C277.81,44.35 262.97,25.98 252.76,21.21 C238.18,14.41 222.14,23.47 206.22,47.51 C186.88,76.72 172.61,118.90 164.61,170.50 C159.68,202.29 158.51,218.85 158.50,256.64 C158.50,259.89 158.49,262.82 158.49,265.49 C158.43,283.07 158.41,288.83 161.16,292.56 C162.91,294.94 165.79,296.50 170.50,299.78 C198.67,319.37 218.97,331.49 248.00,346.07 C286.99,365.65 318.25,377.83 354.00,387.37 C376.89,393.47 401.17,395.64 412.88,392.62 C420.61,390.63 428.50,386.80 432.34,383.18 C439.84,376.12 444.32,360.25 441.84,349.51 C440.96,345.71 439.90,343.41 438.93,343.22 C438.09,343.06 435.54,344.28 433.27,345.92 L 429.14 348.91 L 429.71 354.46 C430.19,359.12 430.02,360.00 428.67,360.00 C427.49,360.00 427.09,360.89 427.19,363.35 C427.26,365.26 426.49,367.82 425.41,369.28 C423.02,372.50 413.33,379.00 410.92,379.00 C409.93,379.00 408.86,379.42 408.54,379.93 C405.98,384.08 371.19,380.21 346.51,373.04 C329.20,368.00 302.30,357.98 283.84,349.69 C269.77,343.37 241.31,329.43 234.00,325.29 C215.74,314.93 206.19,309.08 192.50,299.86 C183.70,293.93 175.15,287.98 173.50,286.63 L 170.50 284.18 L 170.60 255.34 C170.72,217.74 174.66,177.70 181.02,149.40 C182.12,144.50 183.69,137.43 184.51,133.68 C188.16,117.00 196.09,93.73 204.53,75.00 C212.12,58.15 222.57,45.32 232.79,40.32 C237.23,38.14 239.00,37.81 243.87,38.25 C247.07,38.54 251.15,39.54 252.95,40.48 C265.09,46.75 278.66,68.81 289.29,99.54 C295.15,116.48 295.35,118.14 291.65,119.45 C288.24,120.65 286.55,118.91 284.95,112.53 C282.95,104.55 273.62,81.31 268.74,72.16 C263.24,61.83 255.49,51.88 250.65,48.93 C241.02,43.05 229.10,51.29 217.63,71.75 C210.67,84.17 207.69,91.26 201.76,109.52 C196.38,126.11 191.90,144.63 188.95,162.50 C187.77,169.65 186.58,175.85 186.32,176.28 C185.42,177.75 181.92,213.47 181.01,230.50 C179.49,258.93 179.72,278.15 181.60,280.84 C186.40,287.69 249.65,324.59 274.44,335.00 C277.71,336.38 284.91,339.70 290.44,342.38 C295.97,345.06 303.42,348.28 307.00,349.52 C310.58,350.77 316.65,353.11 320.50,354.72 C329.19,358.37 354.48,366.14 366.50,368.85 C393.08,374.86 411.47,373.97 418.12,366.36 C420.40,363.75 422.30,357.33 421.61,354.58 C421.11,352.59 420.19,352.17 415.09,351.59 C408.60,350.85 399.63,346.83 393.90,342.09 C391.92,340.45 388.61,335.89 386.55,331.96 C383.10,325.39 382.80,324.16 382.84,316.86 C382.91,307.06 385.62,300.46 392.66,292.93 C399.54,285.58 405.58,282.76 415.69,282.21 C423.19,281.79 424.41,282.01 430.19,284.72 C437.14,287.99 444.13,294.37 447.06,300.12 C448.10,302.16 449.45,307.00 450.05,310.87 C450.94,316.64 450.86,319.01 449.57,324.03 C447.48,332.21 447.59,335.45 450.20,342.53 C451.94,347.23 452.42,350.73 452.45,359.00 C452.50,369.04 452.34,369.83 448.89,377.05 C442.86,389.68 435.86,396.02 422.71,400.74 ZM 259.41 493.51 C254.32,496.08 252.25,496.53 244.50,496.73 C230.62,497.08 223.35,493.98 211.99,482.83 C202.32,473.35 193.66,460.64 186.01,444.72 C170.90,413.26 161.42,377.47 154.43,325.57 C152.71,312.74 153.20,311.54 158.71,315.17 C167.66,321.08 179.74,328.80 182.75,330.55 C186.56,332.76 186.78,333.30 187.96,343.63 C188.46,347.96 190.50,358.70 192.51,367.50 C194.52,376.30 196.76,386.20 197.50,389.50 C201.02,405.25 213.39,434.31 221.91,446.86 C226.58,453.74 233.48,459.46 239.14,461.16 C242.41,462.14 243.62,462.03 247.24,460.41 C256.62,456.23 264.20,446.31 274.44,424.83 C277.41,418.60 281.75,407.76 284.08,400.75 C287.80,389.54 288.58,388.00 290.52,388.00 C291.74,388.00 293.87,388.90 295.27,390.00 C296.67,391.10 298.78,392.00 299.95,392.00 C303.61,392.00 315.12,396.15 315.71,397.68 C317.05,401.19 307.22,427.58 296.80,448.44 C286.60,468.87 271.05,487.61 259.41,493.51 ZM 248.92 297.87 C245.30,298.49 242.15,298.95 241.92,298.88 C241.69,298.82 238.40,298.15 234.61,297.40 C226.90,295.86 220.97,292.77 213.31,286.26 C193.62,269.55 192.90,237.87 211.80,219.42 C221.33,210.12 232.39,206.31 246.87,207.33 C260.67,208.30 271.11,214.43 278.93,226.14 C284.96,235.17 287.33,243.95 286.81,255.31 C286.45,263.19 285.91,265.50 283.03,271.50 C276.37,285.35 263.40,295.38 248.92,297.87 ZM 139.00 254.50 C139.00,272.38 138.66,286.98 138.25,286.96 C136.80,286.90 114.38,269.09 104.74,260.35 C82.66,240.32 59.46,214.63 48.94,198.54 C42.66,188.94 39.62,183.01 35.85,173.00 C32.83,164.98 32.65,163.72 32.58,150.50 C32.50,137.08 32.62,136.24 35.41,130.21 C40.46,119.26 53.19,109.96 67.00,107.11 C73.18,105.83 91.28,105.05 97.75,105.78 C102.46,106.31 103.08,107.69 100.28,111.41 C98.74,113.45 98.13,113.59 94.53,112.76 C86.10,110.83 67.79,113.85 57.38,118.89 C50.93,122.02 44.65,128.20 42.36,133.69 C38.79,142.23 39.78,158.94 44.57,171.19 C50.83,187.14 60.87,201.83 81.29,224.90 C92.13,237.14 126.58,268.37 128.17,267.40 C129.47,266.59 130.19,260.79 129.52,256.66 C128.91,252.94 127.84,251.65 119.38,244.50 C109.40,236.06 87.61,214.28 79.85,205.00 C72.96,196.76 62.25,180.41 58.56,172.50 C50.70,155.66 51.45,141.45 60.66,132.84 C65.63,128.20 70.49,126.81 84.18,126.13 L 96.85 125.50 L 97.49 129.75 C97.84,132.08 97.86,134.42 97.53,134.95 C97.19,135.51 93.47,135.65 88.53,135.30 C78.26,134.58 72.50,135.99 67.27,140.51 L 63.50 143.77 L 63.55 152.64 C63.59,160.66 63.93,162.22 67.16,169.09 C71.73,178.83 78.54,189.24 86.28,198.31 C94.01,207.36 117.91,231.87 120.26,233.13 C121.66,233.89 123.47,232.86 129.20,228.04 C133.14,224.72 136.96,222.00 137.69,222.00 C138.74,222.00 139.00,228.32 139.00,254.50 ZM 229.00 285.30 C234.56,287.61 236.65,287.96 243.50,287.70 C249.33,287.48 252.77,286.78 256.19,285.12 C262.58,282.01 270.75,273.65 273.90,267.00 C276.16,262.22 276.50,260.20 276.50,251.50 C276.50,242.77 276.17,240.80 273.87,236.00 C269.96,227.80 264.83,222.50 257.36,218.93 C251.19,215.99 250.31,215.84 241.17,216.19 C233.68,216.49 230.45,217.09 226.86,218.84 C219.16,222.61 214.37,227.47 210.38,235.55 C207.06,242.25 206.70,243.80 206.65,251.27 C206.61,258.52 206.99,260.38 209.74,266.26 C213.91,275.17 220.63,281.81 229.00,285.30 ZM 397.55 243.82 C395.56,245.57 393.36,247.00 392.65,247.00 C391.95,247.00 390.07,245.64 388.48,243.98 L 385.58 240.95 L 395.17 231.23 C413.58,212.55 428.64,192.53 435.58,177.50 C440.89,165.99 442.42,159.55 442.46,148.50 C442.50,139.75 442.17,137.80 439.88,132.91 C436.85,126.45 433.34,122.81 427.00,119.54 C414.56,113.13 399.77,111.70 378.48,114.84 C366.27,116.64 341.44,122.28 334.00,124.95 C332.62,125.44 327.45,127.06 322.50,128.55 C297.19,136.15 238.43,162.39 207.50,179.90 C202.55,182.70 197.94,185.00 197.25,185.00 C195.40,185.00 195.70,178.45 197.63,176.51 C198.52,175.62 205.12,171.95 212.28,168.36 C219.44,164.77 226.92,160.81 228.90,159.56 C230.88,158.31 235.88,155.82 240.00,154.02 C244.12,152.22 255.15,147.28 264.50,143.04 C297.18,128.22 320.96,119.64 345.16,113.95 C350.29,112.74 356.98,111.09 360.00,110.28 C368.39,108.04 374.35,107.10 388.04,105.85 C403.97,104.39 419.87,106.35 429.77,110.98 C438.56,115.09 445.84,122.65 449.51,131.50 C452.10,137.72 452.42,139.67 452.42,149.00 C452.42,157.75 451.95,161.00 449.58,168.50 C445.06,182.84 435.45,200.51 425.64,212.50 C417.69,222.21 401.13,240.68 397.55,243.82 ZM 231.65 486.00 C240.15,490.24 251.13,487.74 261.15,479.27 C272.00,470.11 278.15,461.46 289.41,439.50 C295.11,428.39 304.00,406.05 304.00,402.85 C304.00,399.10 295.63,396.31 293.22,399.25 C292.66,399.94 291.54,402.75 290.72,405.50 C288.29,413.67 280.42,432.56 276.57,439.44 C274.61,442.95 270.37,449.37 267.16,453.70 C258.25,465.72 250.65,471.01 242.30,470.99 C230.41,470.97 218.44,460.50 207.13,440.22 C201.30,429.78 199.75,426.13 193.04,407.00 C186.30,387.80 179.99,360.87 177.39,340.18 C176.77,335.22 176.36,334.59 171.52,330.93 C164.67,325.76 162.55,325.71 163.28,330.75 C167.46,359.71 172.65,382.39 181.20,409.00 C193.25,446.52 213.03,476.70 231.65,486.00 ZM 386.24 223.25 C380.45,229.16 375.65,234.00 375.58,234.00 C374.37,234.00 371.00,230.44 371.00,229.18 C371.00,228.24 376.20,222.30 382.56,215.98 C407.29,191.41 421.00,168.44 421.00,151.58 C421.00,139.68 417.19,136.10 403.61,135.26 C387.67,134.26 366.57,138.08 338.50,147.04 C306.30,157.32 294.69,162.07 251.50,182.69 C228.80,193.52 222.23,197.05 204.83,207.79 C196.35,213.02 194.42,213.85 193.31,212.74 C192.30,211.73 192.20,210.24 192.90,206.49 C193.41,203.78 194.20,201.42 194.66,201.26 C195.12,201.10 200.23,198.26 206.00,194.95 C220.33,186.75 259.81,166.85 273.39,160.99 C279.50,158.35 288.11,154.59 292.53,152.62 C300.80,148.94 329.27,138.93 339.00,136.28 C342.02,135.46 346.08,134.36 348.00,133.83 C372.23,127.26 401.70,124.32 412.36,127.42 C419.12,129.38 425.47,134.65 428.13,140.50 C433.20,151.61 428.00,169.81 413.71,191.06 C406.90,201.17 400.31,208.89 386.24,223.25 ZM 101.14 402.97 C66.82,406.39 46.05,398.31 35.50,377.44 C32.60,371.69 32.50,371.06 32.55,358.00 C32.59,345.22 32.77,344.05 35.86,336.00 C39.71,325.96 45.83,314.21 52.25,304.50 C62.78,288.60 86.69,260.97 89.88,261.03 C90.77,261.05 92.28,262.14 93.23,263.45 C94.96,265.82 94.93,265.87 86.49,274.72 C65.97,296.27 48.42,322.92 42.85,341.00 C39.60,351.56 39.61,365.36 42.89,372.71 C47.27,382.54 58.52,390.44 71.85,393.06 C80.29,394.71 100.60,393.71 114.12,390.98 C128.33,388.11 145.95,383.01 149.10,380.85 L 151.71 379.07 L 152.85 382.90 C154.48,388.35 154.30,389.76 151.75,391.38 C146.73,394.58 116.96,401.39 101.14,402.97 ZM 413.66 340.95 C420.95,342.18 421.12,342.16 426.50,339.63 C436.68,334.86 441.00,327.97 441.00,316.51 C441.00,307.78 439.37,303.03 434.70,298.16 C429.75,293.00 425.02,291.00 417.79,291.01 C396.74,291.04 384.76,313.93 397.07,330.59 C399.20,333.48 401.98,336.16 403.23,336.54 C404.48,336.92 406.24,337.89 407.16,338.69 C408.07,339.49 410.99,340.50 413.66,340.95 ZM 114.50 378.13 C101.67,380.74 76.39,381.62 70.42,379.65 C60.82,376.49 55.84,371.02 54.12,361.72 C50.79,343.66 63.60,318.35 92.65,285.63 C96.97,280.77 100.98,275.95 101.57,274.93 C102.60,273.16 102.81,273.19 106.32,275.57 C108.35,276.95 110.00,278.53 110.00,279.09 C110.00,281.14 107.07,285.60 103.48,289.00 C98.56,293.67 86.56,308.71 80.34,318.00 C67.21,337.61 65.10,342.51 64.28,355.29 C63.75,363.56 63.86,364.22 66.11,366.66 C69.58,370.43 73.82,371.90 83.19,372.59 C95.83,373.51 112.71,370.80 135.00,364.27 C139.68,362.91 144.85,361.72 146.50,361.64 C149.18,361.52 149.53,361.84 149.81,364.68 C150.03,366.95 149.60,368.14 148.31,368.82 C145.31,370.41 125.16,375.95 114.50,378.13 ZM 327.36 343.25 C326.71,345.55 324.21,345.46 320.50,343.01 C319.60,342.42 318.95,342.04 318.51,341.49 C317.37,340.02 317.82,337.32 319.67,326.11 C319.78,325.44 319.90,324.73 320.02,324.00 C324.62,296.11 326.87,251.90 325.07,224.50 C323.41,199.13 320.13,171.64 318.45,168.91 C317.40,167.21 322.07,163.00 325.00,163.00 C327.57,163.00 327.70,163.29 329.34,172.75 C334.15,200.53 336.54,234.34 335.56,260.50 C334.72,282.83 332.49,309.92 330.63,320.50 C329.85,324.90 328.91,331.42 328.54,335.00 C328.16,338.58 327.63,342.29 327.36,343.25 ZM 139.78 146.61 C131.27,150.92 122.35,149.29 114.88,142.04 C107.83,135.20 106.31,127.60 110.01,117.70 C112.34,111.47 114.76,108.91 121.00,106.08 C132.53,100.86 145.67,106.52 149.65,118.42 C151.77,124.74 151.74,131.30 149.58,136.46 C147.38,141.72 145.43,143.74 139.78,146.61 ZM 305.77 331.75 C304.83,335.07 304.09,336.00 302.40,336.00 C297.28,336.00 297.16,333.67 300.98,310.00 C306.01,278.83 305.72,214.72 300.41,183.61 C299.57,178.73 299.11,174.17 299.37,173.48 C299.84,172.27 308.07,169.00 310.68,169.00 C312.85,169.00 312.18,170.60 309.50,171.82 C306.82,173.04 306.07,177.34 307.96,180.76 C309.33,183.25 311.75,206.20 313.13,229.80 C314.06,245.71 314.05,254.48 313.08,270.30 C311.41,297.59 308.48,322.18 305.77,331.75 ZM 396.81 275.98 C396.56,276.10 396.32,276.21 396.10,276.32 C393.52,277.57 392.56,278.04 392.20,277.75 C391.99,277.58 391.99,277.14 392.00,276.45 C392.00,276.34 392.00,276.24 392.00,276.12 C392.00,273.06 360.72,245.24 348.87,237.77 C346.98,236.58 346.10,235.03 345.77,232.30 C345.51,230.21 345.51,227.94 345.76,227.25 C346.29,225.79 349.62,225.57 350.46,226.94 C350.78,227.45 354.01,229.95 357.64,232.49 C371.27,242.01 401.00,269.21 401.00,272.15 C401.00,273.28 399.43,274.71 396.81,275.98 ZM 120.95 135.18 C124.16,138.40 125.43,139.00 128.98,139.00 C136.65,139.00 142.00,133.09 142.00,124.63 C142.00,113.54 128.24,108.25 120.11,116.20 C114.43,121.75 114.75,128.99 120.95,135.18 ZM 289.26 322.99 C288.75,326.62 287.98,328.57 286.99,328.76 C286.17,328.91 282.49,327.27 278.80,325.11 C275.12,322.95 270.62,320.68 268.80,320.06 C266.99,319.44 264.60,318.24 263.50,317.39 L 261.50 315.84 L 263.50 314.39 C271.56,308.54 290.05,297.00 291.38,297.00 C291.49,297.00 291.60,297.00 291.70,297.00 C292.07,296.99 292.36,296.98 292.55,297.11 C293.15,297.51 292.88,299.19 291.81,306.05 C291.72,306.65 291.62,307.28 291.51,307.96 C290.70,313.21 289.68,319.97 289.26,322.99 ZM 290.98 192.10 C292.45,201.41 292.87,206.53 292.22,207.18 C291.67,207.73 290.98,207.78 290.69,207.31 C289.92,206.06 271.07,193.50 267.51,191.86 C263.06,189.81 263.13,187.44 267.70,185.96 C269.79,185.28 274.53,183.21 278.23,181.36 C278.55,181.20 278.86,181.04 279.16,180.89 C283.35,178.79 285.65,177.64 287.13,178.31 C289.04,179.18 289.56,183.13 290.98,192.10 ZM 384.72 283.09 C385.48,283.35 384.71,284.96 382.60,287.46 L 379.27 291.42 L 374.89 287.09 C372.47,284.70 364.99,278.05 358.25,272.30 C351.51,266.55 346.00,261.35 346.00,260.74 C346.00,258.81 348.37,253.00 349.17,253.00 C349.78,253.00 355.90,257.86 358.00,260.01 C360.98,263.07 383.80,282.79 384.72,283.09 ZM 208.27 158.93 C202.77,162.32 202.39,162.43 201.52,161.03 C200.87,159.98 203.48,143.65 204.57,141.88 C205.51,140.37 209.37,141.33 217.25,145.02 C221.06,146.81 224.00,148.83 224.00,149.65 C224.00,150.45 221.59,152.18 218.63,153.49 C215.67,154.79 211.01,157.24 208.27,158.93 ZM 215.60 364.88 C210.92,367.70 206.41,370.00 205.57,370.00 C204.05,370.00 203.44,368.35 202.75,362.41 C202.42,359.51 202.79,359.11 208.82,355.98 C215.07,352.75 215.38,352.69 219.38,354.07 C222.25,355.07 223.59,356.15 223.80,357.63 C224.05,359.36 222.49,360.73 215.60,364.88 Z" fill="rgb(72,48,46)"/>
<path d="M 101.89 108.52 C101.76,109.63 101.11,111.21 100.00,113.51 C98.54,116.53 97.92,120.08 97.75,126.58 L 97.63 130.85 C97.59,130.49 97.54,130.12 97.49,129.75 L 96.85 125.50 L 84.18 126.13 C74.89,126.59 69.67,127.38 65.72,129.29 C66.45,128.84 67.21,128.42 68.00,128.02 C71.71,126.12 74.55,125.63 84.13,125.26 L 95.76 124.80 L 96.39 120.21 C96.76,117.47 96.59,115.19 95.96,114.56 C94.17,112.77 79.73,112.67 71.26,114.39 C63.18,116.02 56.26,119.01 51.06,122.95 C53.05,121.35 55.21,119.95 57.38,118.89 C67.79,113.85 86.10,110.83 94.53,112.76 C98.13,113.59 98.74,113.45 100.28,111.41 C101.17,110.22 101.72,109.28 101.89,108.52 ZM 425.24 330.14 C421.08,333.65 411.64,334.08 407.67,330.95 C403.92,328.01 404.34,326.63 408.25,329.01 C412.17,331.40 417.03,331.55 421.51,329.43 C426.42,327.10 427.84,325.03 429.39,317.93 L 430.80 311.50 L 430.90 316.28 C431.03,322.26 429.15,326.85 425.24,330.14 ZM 305.77 331.75 C306.25,330.06 306.74,327.90 307.22,325.33 C306.09,332.23 305.81,334.39 306.74,335.68 C307.16,336.26 307.82,336.66 308.75,337.24 C312.48,339.55 315.70,339.43 317.03,336.94 C318.76,333.71 321.77,314.15 323.42,295.50 C323.96,289.29 324.41,283.30 324.76,277.47 C323.81,294.29 322.18,310.93 320.02,324.00 C319.90,324.73 319.78,325.44 319.67,326.11 C317.82,337.32 317.37,340.02 318.51,341.49 C318.95,342.04 319.60,342.42 320.50,343.01 C322.96,344.63 324.88,345.22 326.09,344.76 C324.47,346.34 323.86,346.28 321.47,344.64 C320.39,343.90 317.02,342.48 314.00,341.50 C310.98,340.52 307.61,339.10 306.53,338.36 C305.44,337.61 303.82,337.00 302.93,337.00 C302.24,337.00 301.15,336.46 300.25,335.71 C300.83,335.93 301.55,336.00 302.40,336.00 C304.09,336.00 304.83,335.07 305.77,331.75 ZM 312.50 111.40 C310.27,112.70 305.74,114.44 296.15,117.84 C294.62,118.39 293.40,118.82 292.43,119.14 C294.69,118.08 294.80,116.22 292.05,107.70 C294.60,114.89 295.13,114.98 297.50,114.97 C299.15,114.96 301.58,114.13 302.90,113.11 C305.23,111.32 305.59,108.79 303.25,101.56 C304.13,104.11 304.78,106.20 305.10,107.57 L 306.26 112.64 L 309.77 112.07 C310.88,111.89 311.78,111.69 312.50,111.40 ZM 305.18 170.42 C306.47,169.86 307.63,169.32 308.21,168.99 C309.15,168.46 311.17,168.28 312.71,168.59 C314.93,169.03 316.10,168.51 318.44,166.07 C320.50,163.92 322.31,163.00 324.51,163.00 L 327.65 163.00 L 329.34 172.74 C327.70,163.29 327.57,163.00 325.00,163.00 C322.07,163.00 317.40,167.21 318.45,168.91 C318.89,169.63 319.45,172.07 320.05,175.73 C319.42,172.39 318.77,170.95 317.70,170.53 C316.76,170.16 315.50,170.61 313.66,171.25 C313.35,171.36 313.01,171.48 312.66,171.60 C310.95,172.18 309.79,172.44 309.08,173.15 C307.85,174.38 307.97,176.94 308.93,184.81 C308.57,182.69 308.24,181.28 307.96,180.76 C306.07,177.34 306.82,173.04 309.50,171.82 C312.18,170.60 312.85,169.00 310.68,169.00 C309.54,169.00 307.34,169.62 305.18,170.42 ZM 429.53 359.74 C429.19,362.44 428.79,364.73 428.47,365.50 C425.40,372.98 418.08,378.14 408.10,380.38 C408.30,380.24 408.44,380.09 408.54,379.93 C408.86,379.42 409.93,379.00 410.92,379.00 C413.33,379.00 423.02,372.50 425.41,369.28 C426.49,367.82 427.26,365.26 427.19,363.35 C427.09,360.89 427.49,360.00 428.67,360.00 C429.04,360.00 429.32,359.93 429.53,359.74 ZM 178.03 344.88 C176.25,335.84 175.19,334.58 171.67,331.99 C166.29,328.03 164.00,328.05 164.00,332.05 C164.00,335.07 166.95,352.73 169.46,365.64 C167.08,354.64 165.09,343.28 163.28,330.75 C162.55,325.71 164.67,325.76 171.52,330.93 C176.36,334.59 176.77,335.22 177.39,340.18 C177.58,341.71 177.80,343.29 178.03,344.88 ZM 441.98 350.14 C441.51,348.54 440.81,347.23 439.83,346.35 C437.90,344.60 437.71,344.61 434.17,346.66 C430.59,348.73 430.49,348.95 429.90,356.14 C429.89,356.20 429.89,356.26 429.88,356.33 C429.84,355.78 429.78,355.16 429.71,354.46 L 429.14 348.91 L 433.27 345.92 C435.54,344.28 438.09,343.06 438.93,343.22 C439.90,343.41 440.96,345.71 441.84,349.51 C441.89,349.72 441.93,349.93 441.98,350.14 ZM 220.66 354.57 C220.27,354.40 219.85,354.24 219.38,354.07 C215.38,352.69 215.07,352.75 208.82,355.98 C202.79,359.11 202.42,359.51 202.75,362.41 C203.24,366.63 203.69,368.69 204.45,369.52 C204.01,369.20 203.75,368.60 203.58,367.75 C202.04,360.16 202.01,357.00 203.45,357.00 C205.98,357.00 212.00,353.70 212.00,352.31 C212.00,352.27 212.00,352.22 212.00,352.18 C212.00,351.72 212.00,351.40 212.16,351.25 C212.52,350.90 213.75,351.44 217.84,353.25 L 218.38 353.49 C219.23,353.87 220.00,354.22 220.66,354.57 ZM 231.79 337.70 C210.70,326.44 193.14,315.52 170.50,299.78 C190.95,314.00 210.99,326.42 231.79,337.70 ZM 393.75 393.84 C402.92,394.04 410.85,393.17 417.46,391.23 C415.95,391.76 414.41,392.23 412.88,392.62 C408.21,393.82 401.54,394.20 393.75,393.84 ZM 397.63 381.61 C394.58,381.68 391.39,381.53 388.07,381.15 C378.90,380.11 370.63,378.79 362.04,376.88 C375.09,379.62 388.54,381.37 397.63,381.61 ZM 269.18 342.86 C255.22,336.35 241.72,329.67 234.00,325.29 C239.23,328.26 255.31,336.24 269.18,342.86 ZM 120.36 261.66 C124.29,265.04 127.80,267.62 128.17,267.40 C127.26,267.96 115.46,257.85 103.54,246.84 C108.40,251.25 113.91,256.08 120.36,261.66 ZM 268.29 34.60 C267.17,33.34 266.02,32.11 264.85,30.92 C256.87,22.78 251.24,19.47 244.35,19.05 C247.20,19.21 250.01,19.93 252.76,21.21 C257.30,23.33 262.75,28.14 268.29,34.60 ZM 164.61 170.50 C167.37,152.70 170.88,136.02 175.08,120.60 C170.85,136.31 167.26,153.61 164.29,172.60 C164.39,171.91 164.50,171.21 164.61,170.50 ZM 56.33 193.46 C51.17,185.67 47.46,178.56 44.57,171.19 C47.15,177.76 51.48,185.89 56.33,193.46 ZM 188.24 428.07 C193.57,440.46 199.33,451.23 205.33,460.14 C199.13,451.02 193.31,440.14 188.24,428.07 ZM 54.40 142.80 C51.86,150.87 53.23,161.08 58.56,172.50 C53.09,160.79 51.73,150.77 54.40,142.80 ZM 311.16 203.69 C312.13,213.09 312.82,222.49 313.23,231.59 C313.20,231.00 313.17,230.41 313.13,229.80 C312.59,220.61 311.89,211.51 311.16,203.69 ZM 228.19 23.88 C217.70,30.67 206.84,44.38 196.51,64.08 C199.59,58.17 202.83,52.64 206.22,47.51 C213.57,36.41 220.94,28.51 228.19,23.88 ZM 182.82 370.49 C185.73,383.45 189.32,396.40 193.04,407.00 C189.05,395.64 185.58,383.24 182.82,370.49 ZM 308.21 87.80 C312.75,99.04 315.48,108.02 314.35,109.81 C314.26,109.95 314.16,110.08 314.04,110.22 C315.20,108.41 314.27,104.82 311.56,96.82 C310.62,94.04 309.49,90.99 308.21,87.80 ZM 298.49 333.20 C297.78,330.68 298.46,325.60 300.98,310.00 C298.80,323.49 297.91,330.05 298.49,333.20 ZM 300.78 185.89 C300.68,185.25 300.57,184.62 300.47,184.00 C300.41,183.68 300.36,183.36 300.31,183.06 C299.42,177.90 298.99,175.40 299.30,173.99 C299.24,175.44 299.69,179.41 300.41,183.61 C300.54,184.35 300.66,185.11 300.78,185.89 ZM 432.34 383.18 C436.63,379.15 439.92,371.94 441.54,364.88 C439.98,372.12 436.66,379.11 432.34,383.18 ZM 314.46 362.16 C313.01,361.63 311.52,361.08 310.00,360.52 C306.89,359.37 303.04,357.83 298.73,356.03 C303.83,358.10 309.15,360.17 314.46,362.16 ZM 159.81 209.98 C158.88,222.88 158.51,237.29 158.50,256.64 C158.51,237.09 158.82,223.22 159.81,209.98 ZM 276.50 69.35 C268.81,54.65 260.60,44.43 252.95,40.48 C260.65,44.46 268.83,54.63 276.50,69.35 ZM 291.39 72.16 C288.95,66.82 286.55,62.00 284.14,57.60 C285.44,59.90 286.68,62.26 287.86,64.64 C288.95,66.83 290.14,69.39 291.39,72.16 ZM 313.40 264.75 C313.32,266.58 313.23,268.37 313.12,270.12 C312.64,277.87 312.07,285.26 311.42,292.24 C312.05,285.32 312.62,277.91 313.08,270.30 C313.20,268.36 313.31,266.52 313.40,264.75 ZM 300.98 310.00 C303.82,292.43 304.96,264.11 304.46,237.31 C304.97,264.12 303.83,292.34 300.98,310.00 ZM 325.13 225.48 C325.49,231.25 325.67,237.72 325.69,244.61 C325.64,238.18 325.46,231.83 325.13,225.48 ZM 97.51 134.97 L 97.50 135.50 L 95.57 135.42 C96.65,135.34 97.34,135.19 97.51,134.97 ZM 278.34 360.50 C282.01,362.12 285.73,363.73 289.50,365.33 C300.23,369.86 311.50,374.13 322.57,377.90 C308.00,372.96 293.57,367.29 278.34,360.50 ZM 80.95 135.21 C74.96,135.70 70.96,137.32 67.27,140.51 C71.05,137.24 75.11,135.60 80.95,135.21 ZM 321.01 182.24 C321.51,185.94 322.02,190.22 322.52,194.87 C321.88,189.48 321.42,185.45 321.01,182.24 ZM 290.01 119.80 C288.71,120.02 288.26,119.67 287.63,118.84 C288.31,119.54 289.08,119.84 290.01,119.80 ZM 299.68 173.10 C300.22,172.41 301.08,172.08 302.38,171.57 C301.16,172.13 300.17,172.68 299.68,173.10 ZM 215.55 364.91 C211.95,367.08 209.45,368.49 207.69,369.21 C209.62,368.31 212.55,366.72 215.55,364.91 ZM 223.14 356.19 C223.94,356.97 224.14,357.74 223.72,358.62 C223.83,358.29 223.85,357.97 223.80,357.63 C223.73,357.11 223.51,356.63 223.14,356.19 ZM 101.51 106.94 C100.90,106.35 99.66,106.00 97.75,105.78 C99.70,106.00 100.92,106.29 101.51,106.94 ZM 181.20 409.00 C181.04,408.49 180.87,407.99 180.71,407.48 C181.56,410.10 182.39,412.60 183.18,414.91 C182.50,412.96 181.84,410.99 181.20,409.00 ZM 81.73 225.39 C82.61,226.35 83.50,227.31 84.40,228.26 C83.41,227.23 82.52,226.26 81.73,225.39 ZM 328.25 337.55 C328.32,336.98 328.39,336.39 328.45,335.79 L 328.44 335.89 C328.39,336.45 328.32,337.01 328.25,337.55 Z" fill="rgb(159,119,103)"/>
<path d="M 429.53 359.74 C429.95,359.34 430.04,358.39 429.88,356.33 C429.89,356.26 429.89,356.20 429.90,356.14 C430.49,348.95 430.59,348.73 434.17,346.66 C437.71,344.61 437.90,344.60 439.83,346.35 C440.81,347.23 441.51,348.54 441.98,350.14 C442.87,354.57 442.64,359.79 441.54,364.88 C439.92,371.94 436.63,379.15 432.34,383.18 C429.26,386.08 423.58,389.12 417.46,391.23 C410.85,393.17 402.92,394.04 393.75,393.84 C382.02,393.29 367.76,391.04 354.00,387.37 C343.23,384.49 332.86,381.38 322.57,377.90 C311.50,374.13 300.23,369.86 289.50,365.33 C285.73,363.73 282.02,362.12 278.34,360.50 L 278.34 360.50 C268.63,356.17 258.60,351.40 248.00,346.07 C242.30,343.21 236.94,340.44 231.79,337.70 C210.99,326.42 190.95,314.00 170.50,299.78 C165.79,296.50 162.91,294.94 161.16,292.56 C158.41,288.83 158.43,283.07 158.49,265.49 C158.49,262.82 158.50,259.89 158.50,256.64 C158.51,237.09 158.82,223.22 159.81,209.98 C160.68,198.21 162.09,186.93 164.29,172.60 C167.26,153.61 170.85,136.31 175.08,120.60 C180.92,99.19 188.11,80.22 196.51,64.08 C206.84,44.38 217.70,30.67 228.19,23.88 C233.67,20.38 239.09,18.75 244.35,19.05 C251.24,19.47 256.87,22.78 264.85,30.92 C266.02,32.11 267.17,33.34 268.29,34.60 L 268.29 34.60 C273.76,40.98 279.30,48.97 284.14,57.60 C286.55,62.00 288.95,66.82 291.39,72.16 C295.70,81.76 300.56,93.82 303.25,101.56 C305.59,108.79 305.23,111.32 302.90,113.11 C301.58,114.13 299.15,114.96 297.50,114.97 C295.13,114.98 294.60,114.89 292.05,107.70 C291.33,105.47 290.41,102.79 289.29,99.54 C285.36,88.17 281.02,77.98 276.50,69.34 C268.83,54.63 260.65,44.46 252.95,40.48 L 252.95 40.48 C251.15,39.54 247.07,38.54 243.87,38.25 C239.00,37.81 237.23,38.14 232.79,40.32 C222.57,45.32 212.12,58.15 204.53,75.00 C196.09,93.73 188.16,117.00 184.51,133.68 C183.69,137.43 182.12,144.50 181.02,149.40 C174.66,177.70 170.72,217.74 170.60,255.34 L 170.50 284.18 L 173.50 286.63 C175.15,287.98 183.70,293.93 192.50,299.86 C206.19,309.08 215.74,314.93 234.00,325.29 C241.72,329.67 255.22,336.35 269.18,342.86 L 269.18 342.86 C274.69,345.48 279.84,347.89 283.84,349.69 C288.38,351.73 293.44,353.88 298.73,356.03 C303.04,357.83 306.89,359.37 310.00,360.52 C311.52,361.08 313.01,361.63 314.46,362.16 C326.05,366.50 337.56,370.43 346.51,373.04 C351.40,374.46 356.69,375.75 362.04,376.88 C370.63,378.79 378.90,380.11 388.07,381.15 C391.39,381.53 394.58,381.68 397.63,381.61 C402.90,381.74 406.70,381.37 408.10,380.38 C418.08,378.14 425.40,372.98 428.47,365.50 C428.79,364.73 429.19,362.44 429.53,359.74 ZM 386.24 223.25 C400.31,208.89 406.90,201.17 413.71,191.06 C428.00,169.81 433.20,151.61 428.13,140.50 C425.47,134.65 419.12,129.38 412.36,127.42 C401.70,124.32 372.23,127.26 348.00,133.83 C346.08,134.36 342.02,135.46 339.00,136.28 C329.27,138.93 300.80,148.94 292.53,152.62 C288.11,154.59 279.50,158.35 273.39,160.99 C259.81,166.85 220.33,186.75 206.00,194.95 C200.23,198.26 195.12,201.10 194.66,201.26 C194.30,201.39 193.72,202.91 193.24,204.89 C193.71,201.92 194.17,197.46 194.35,194.04 C194.57,189.94 195.18,186.44 195.73,186.26 C196.18,186.11 196.41,185.22 196.33,184.15 C196.54,184.68 196.84,185.00 197.25,185.00 C197.94,185.00 202.55,182.70 207.50,179.90 C238.43,162.39 297.19,136.15 322.50,128.55 C327.45,127.06 332.62,125.44 334.00,124.95 C341.44,122.28 366.27,116.64 378.48,114.84 C399.77,111.70 414.56,113.13 427.00,119.54 C433.34,122.81 436.85,126.45 439.88,132.91 C442.17,137.80 442.50,139.75 442.46,148.50 C442.42,159.55 440.89,165.99 435.58,177.50 C428.64,192.53 413.58,212.55 395.17,231.23 L 385.58 240.95 L 388.48 243.98 C389.87,245.43 391.49,246.66 392.34,246.94 C391.53,247.01 390.93,246.69 390.49,245.99 C389.84,244.94 380.56,237.49 375.61,233.97 C376.08,233.56 380.71,228.90 386.24,223.25 ZM 229.00 285.30 C220.63,281.81 213.91,275.17 209.74,266.26 C206.99,260.38 206.61,258.52 206.65,251.27 C206.70,243.80 207.06,242.25 210.38,235.55 C214.37,227.47 219.16,222.61 226.86,218.84 C230.45,217.09 233.68,216.49 241.17,216.19 C250.31,215.84 251.19,215.99 257.36,218.93 C264.83,222.50 269.96,227.80 273.87,236.00 C276.17,240.80 276.50,242.77 276.50,251.50 C276.50,260.20 276.16,262.22 273.90,267.00 C270.75,273.65 262.58,282.01 256.19,285.12 C252.77,286.78 249.33,287.48 243.50,287.70 C236.65,287.96 234.56,287.61 229.00,285.30 ZM 231.65 486.00 C222.82,481.59 213.73,472.49 205.33,460.14 C199.33,451.23 193.57,440.46 188.24,428.07 C186.45,423.83 184.76,419.43 183.18,414.91 C182.39,412.60 181.56,410.10 180.71,407.48 C176.10,392.98 172.47,379.59 169.46,365.64 C166.95,352.73 164.00,335.07 164.00,332.05 C164.00,328.05 166.29,328.03 171.67,331.99 C175.19,334.58 176.25,335.84 178.03,344.88 C179.20,352.94 180.86,361.72 182.82,370.49 C185.58,383.24 189.05,395.64 193.04,407.00 C199.75,426.13 201.30,429.78 207.13,440.22 C218.44,460.50 230.41,470.97 242.30,470.99 C250.65,471.01 258.25,465.72 267.16,453.70 C270.37,449.37 274.61,442.95 276.57,439.44 C280.42,432.56 288.29,413.67 290.72,405.50 C291.54,402.75 292.66,399.94 293.22,399.25 C295.63,396.31 304.00,399.10 304.00,402.85 C304.00,406.05 295.11,428.39 289.41,439.50 C278.15,461.46 272.00,470.11 261.15,479.27 C251.13,487.74 240.15,490.24 231.65,486.00 ZM 114.50 378.13 C125.16,375.95 145.31,370.41 148.31,368.82 C149.02,368.45 149.46,367.92 149.69,367.15 C149.85,370.76 150.34,373.83 151.69,379.08 L 149.10 380.85 C145.95,383.01 128.33,388.11 114.12,390.98 C100.60,393.71 80.29,394.71 71.85,393.06 C58.52,390.44 47.27,382.54 42.89,372.71 C39.61,365.36 39.60,351.56 42.85,341.00 C48.42,322.92 65.97,296.27 86.49,274.72 C93.38,267.49 94.66,266.13 93.96,264.59 C96.46,267.28 101.08,271.41 106.43,275.65 C106.39,275.62 106.36,275.60 106.32,275.57 C102.81,273.19 102.60,273.16 101.57,274.93 C100.98,275.95 96.97,280.77 92.65,285.63 C63.60,318.35 50.79,343.66 54.12,361.72 C55.84,371.02 60.82,376.49 70.42,379.65 C76.39,381.62 101.67,380.74 114.50,378.13 ZM 120.36 261.66 C113.91,256.08 108.40,251.25 103.54,246.84 C96.44,240.28 89.31,233.40 84.40,228.26 C83.50,227.31 82.61,226.35 81.73,225.39 C81.58,225.22 81.43,225.06 81.29,224.90 C70.31,212.50 62.34,202.52 56.33,193.46 C51.48,185.89 47.15,177.76 44.57,171.19 C39.78,158.94 38.79,142.23 42.36,133.69 C43.88,130.05 47.15,126.11 51.06,122.95 C56.26,119.01 63.18,116.02 71.26,114.39 C79.73,112.67 94.17,112.77 95.96,114.56 C96.59,115.19 96.76,117.47 96.39,120.21 L 95.76 124.80 L 84.13 125.26 C74.55,125.63 71.71,126.12 68.00,128.02 C67.21,128.42 66.45,128.84 65.72,129.29 C63.84,130.19 62.26,131.35 60.66,132.84 C57.69,135.61 55.61,138.97 54.40,142.80 C51.73,150.77 53.09,160.79 58.56,172.50 C62.25,180.41 72.96,196.76 79.85,205.00 C87.61,214.28 109.40,236.06 119.38,244.50 C127.84,251.65 128.91,252.94 129.52,256.66 C130.19,260.79 129.47,266.59 128.17,267.40 C127.80,267.62 124.29,265.04 120.36,261.66 ZM 311.16 203.69 C310.41,195.61 309.62,188.89 308.93,184.81 C307.97,176.94 307.85,174.38 309.08,173.15 C309.79,172.44 310.95,172.18 312.66,171.60 C313.01,171.48 313.35,171.36 313.66,171.25 C315.50,170.61 316.76,170.16 317.70,170.53 C318.77,170.95 319.42,172.39 320.05,175.73 C320.36,177.60 320.69,179.79 321.01,182.24 C321.42,185.45 321.88,189.48 322.48,194.50 L 322.52 194.87 C323.49,203.95 324.41,214.39 325.07,224.50 C325.09,224.82 325.11,225.15 325.13,225.48 L 325.13 225.48 C325.46,231.83 325.64,238.18 325.69,244.61 C325.72,254.97 325.39,266.26 324.76,277.47 C324.41,283.30 323.96,289.29 323.42,295.50 C321.77,314.15 318.76,333.71 317.03,336.94 C315.70,339.43 312.48,339.55 308.75,337.24 C307.82,336.66 307.16,336.26 306.74,335.68 C305.81,334.39 306.09,332.23 307.22,325.33 C308.71,317.44 310.19,305.75 311.42,292.24 C312.07,285.26 312.64,277.87 313.12,270.12 C313.23,268.37 313.32,266.58 313.40,264.75 C314.01,252.76 313.95,244.50 313.23,231.59 C312.82,222.49 312.13,213.09 311.16,203.69 ZM 407.99 331.19 C406.04,329.95 404.51,327.95 402.97,324.95 C397.36,313.95 404.99,300.37 416.62,300.65 C424.02,300.83 429.23,305.38 430.55,312.65 L 429.39 317.93 C427.84,325.03 426.42,327.10 421.51,329.43 C417.03,331.55 412.17,331.40 408.25,329.01 C404.34,326.63 403.92,328.01 407.67,330.95 C407.77,331.03 407.88,331.11 407.99,331.19 ZM 384.72 283.09 C383.80,282.79 360.98,263.07 358.00,260.01 C355.90,257.86 349.78,253.00 349.17,253.00 C348.83,253.00 348.21,254.04 347.61,255.38 C347.97,254.17 347.75,253.40 346.90,252.37 C345.89,251.17 345.48,247.55 345.44,239.59 C345.42,235.77 345.48,232.16 345.58,229.83 C345.60,230.61 345.66,231.47 345.77,232.30 C346.10,235.03 346.98,236.58 348.87,237.77 C360.72,245.24 392.00,273.06 392.00,276.12 C392.00,276.24 392.00,276.34 392.00,276.45 C391.99,277.14 391.99,277.58 392.20,277.75 C392.42,277.92 392.84,277.82 393.70,277.45 C391.10,278.88 388.36,280.85 387.05,282.28 C386.09,283.33 384.85,284.74 383.72,286.05 C384.96,284.36 385.33,283.30 384.72,283.09 ZM 120.95 135.18 C114.75,128.99 114.43,121.75 120.11,116.20 C128.24,108.25 142.00,113.54 142.00,124.63 C142.00,133.09 136.65,139.00 128.98,139.00 C125.43,139.00 124.16,138.40 120.95,135.18 ZM 220.18 354.33 C219.64,354.06 219.04,353.78 218.38,353.49 L 217.84 353.25 L 217.84 353.25 C213.75,351.44 212.52,350.90 212.16,351.25 C212.00,351.40 212.00,351.72 212.00,352.18 C212.00,352.22 212.00,352.27 212.00,352.31 C212.00,353.70 205.98,357.00 203.45,357.00 C202.65,357.00 202.30,357.99 202.42,360.18 C202.33,360.06 202.24,360.00 202.15,360.00 C200.92,360.00 198.81,346.17 199.77,344.45 C200.43,343.27 201.60,343.67 206.04,346.55 C209.04,348.50 214.31,351.45 217.75,353.10 C218.66,353.54 219.47,353.94 220.18,354.33 ZM 35.86 336.00 C38.98,327.86 42.66,320.25 47.32,312.44 C42.79,320.22 38.71,328.58 35.86,336.00 ZM 84.86 264.85 C80.43,269.14 73.84,276.55 67.41,284.39 C74.31,275.91 80.59,268.91 84.86,264.85 ZM 92.14 262.25 C91.35,261.54 90.48,261.05 89.89,261.03 C89.98,261.01 90.06,261.00 90.13,261.00 C91.16,261.00 92.00,261.35 92.00,261.78 C92.00,261.90 92.05,262.06 92.14,262.25 ZM 424.42 330.75 C422.88,331.92 421.56,332.44 419.31,332.69 C421.23,332.32 423.03,331.67 424.42,330.75 ZM 196.70 178.05 C196.24,179.25 196.00,180.77 196.01,182.08 C195.81,180.49 195.93,179.26 196.70,178.05 ZM 96.63 296.58 C99.38,293.30 101.83,290.57 103.48,289.00 C103.28,289.24 102.93,289.61 102.56,290.00 C100.60,292.08 98.61,294.28 96.63,296.58 ZM 203.04 364.89 C203.19,365.76 203.37,366.71 203.58,367.75 C203.75,368.60 204.01,369.20 204.45,369.52 C204.55,369.62 204.64,369.71 204.75,369.77 C203.74,369.21 203.18,367.60 203.04,364.89 ZM 300.98 309.99 C303.80,292.55 304.95,264.50 304.47,237.87 C304.96,264.51 303.81,292.46 300.98,309.99 ZM 229.00 159.49 C230.93,158.28 235.88,155.82 240.00,154.02 C235.88,155.82 230.88,158.31 228.90,159.56 C227.41,160.50 222.79,162.99 217.54,165.69 C222.97,162.87 227.60,160.37 229.00,159.49 ZM 430.90 317.46 C430.83,321.30 429.89,324.46 428.04,327.08 C429.86,324.45 430.81,321.25 430.90,317.46 ZM 101.14 402.97 C106.61,402.42 113.75,401.25 120.96,399.82 C113.84,401.25 106.76,402.41 101.14,402.97 C66.81,406.38 46.05,398.31 35.50,377.44 C46.05,398.31 66.82,406.39 101.14,402.97 ZM 372.60 231.81 C371.66,230.93 371.00,229.91 371.00,229.21 C371.00,229.21 371.00,229.20 371.00,229.20 C371.02,229.79 371.72,230.84 372.60,231.81 ZM 152.32 391.00 C153.41,390.19 153.91,389.34 153.91,387.94 C154.00,389.16 153.66,389.77 152.84,390.59 C152.71,390.72 152.53,390.85 152.32,391.00 ZM 346.87 257.22 C346.42,258.48 346.07,259.74 346.01,260.53 C346.00,260.51 346.00,260.49 346.00,260.47 C346.00,259.83 346.37,258.47 346.87,257.22 ZM 205.60 370.00 C205.91,369.98 206.66,369.69 207.69,369.21 C207.82,369.16 207.96,369.10 208.09,369.04 C206.85,369.64 205.97,370.00 205.66,370.00 C205.64,370.00 205.62,370.00 205.60,370.00 ZM 148.86 361.91 C148.39,361.62 147.67,361.59 146.50,361.64 C147.70,361.59 148.42,361.57 148.86,361.91 ZM 400.03 273.88 C400.65,273.27 400.99,272.69 401.00,272.17 C401.00,272.18 401.00,272.18 401.00,272.19 C401.00,272.72 400.69,273.28 400.03,273.88 ZM 397.55 243.82 C396.64,244.62 395.82,245.26 395.08,245.75 C395.86,245.22 396.73,244.55 397.55,243.82 ZM 192.49 210.89 C192.58,211.72 192.85,212.28 193.31,212.74 C192.84,212.27 192.57,211.72 192.49,210.89 Z" fill="rgb(243,137,84)"/>
<path d="M 0.00 260.50 L 0.00 0.00 L 239.50 0.00 L 479.00 0.00 L 479.00 260.50 L 479.00 521.00 L 239.50 521.00 L 0.00 521.00 L 0.00 260.50 ZM 259.41 493.51 C271.05,487.61 286.60,468.87 296.80,448.44 C307.22,427.58 317.05,401.19 315.71,397.68 C315.12,396.15 303.61,392.00 299.95,392.00 C298.78,392.00 296.67,391.10 295.27,390.00 C293.87,388.90 291.74,388.00 290.52,388.00 C288.58,388.00 287.80,389.54 284.08,400.75 C281.75,407.76 277.41,418.60 274.44,424.83 C264.20,446.31 256.62,456.23 247.24,460.41 C243.62,462.03 242.41,462.14 239.14,461.16 C233.48,459.46 226.58,453.74 221.91,446.86 C213.39,434.31 201.02,405.25 197.50,389.50 C196.76,386.20 194.52,376.30 192.51,367.50 C190.50,358.70 188.46,347.96 187.96,343.63 C186.78,333.30 186.56,332.76 182.75,330.55 C179.74,328.80 167.66,321.08 158.71,315.17 C153.20,311.54 152.71,312.74 154.43,325.57 C161.42,377.47 170.90,413.26 186.01,444.72 C193.66,460.64 202.32,473.35 211.99,482.83 C223.35,493.98 230.62,497.08 244.50,496.73 C252.25,496.53 254.32,496.08 259.41,493.51 ZM 101.14 402.97 C118.42,401.26 149.65,393.78 152.84,390.59 C154.22,389.21 154.25,388.43 153.09,384.26 C150.54,375.15 149.83,371.47 149.66,366.50 C149.50,361.61 149.43,361.50 146.50,361.64 C144.85,361.72 139.68,362.91 135.00,364.27 C112.71,370.80 95.83,373.51 83.19,372.59 C73.82,371.90 69.58,370.43 66.11,366.66 C63.86,364.22 63.75,363.56 64.28,355.29 C65.10,342.52 67.18,337.69 80.32,318.00 C86.82,308.27 94.88,298.12 102.56,290.00 C110.12,282.01 111.19,279.35 107.88,276.78 C99.18,270.04 92.00,263.25 92.00,261.78 C92.00,261.35 91.16,261.00 90.13,261.00 C87.84,261.00 77.49,271.81 65.69,286.52 C50.98,304.86 42.25,319.35 35.86,336.00 C32.77,344.05 32.59,345.22 32.55,358.00 C32.50,371.06 32.60,371.69 35.50,377.44 C46.05,398.31 66.81,406.38 101.14,402.97 ZM 422.71 400.74 C435.86,396.02 442.86,389.68 448.89,377.05 C452.34,369.83 452.50,369.04 452.45,359.00 C452.42,350.73 451.94,347.23 450.20,342.53 C447.59,335.45 447.48,332.21 449.57,324.03 C450.86,319.01 450.94,316.64 450.05,310.87 C449.45,307.00 448.10,302.16 447.06,300.12 C444.13,294.37 437.14,287.99 430.19,284.72 C424.41,282.01 423.19,281.79 415.69,282.21 C405.58,282.76 399.54,285.58 392.66,292.93 C385.62,300.46 382.91,307.06 382.84,316.86 C382.80,324.16 383.10,325.39 386.55,331.96 C388.61,335.89 391.92,340.45 393.90,342.09 C399.63,346.83 408.60,350.85 415.09,351.59 C420.19,352.17 421.11,352.59 421.61,354.58 C422.30,357.33 420.40,363.75 418.12,366.36 C411.47,373.97 393.08,374.86 366.50,368.85 C354.48,366.14 329.19,358.37 320.50,354.72 C316.65,353.11 310.58,350.77 307.00,349.52 C303.42,348.28 295.97,345.06 290.44,342.38 C284.91,339.70 277.71,336.38 274.44,335.00 C249.65,324.59 186.40,287.69 181.60,280.84 C179.72,278.15 179.49,258.93 181.01,230.50 C181.92,213.47 185.42,177.75 186.32,176.28 C186.58,175.85 187.77,169.65 188.95,162.50 C191.90,144.63 196.38,126.11 201.76,109.52 C207.69,91.26 210.67,84.17 217.63,71.75 C229.10,51.29 241.02,43.05 250.65,48.93 C255.49,51.88 263.24,61.83 268.74,72.16 C273.62,81.31 282.95,104.55 284.95,112.53 C285.50,114.75 286.60,117.44 287.38,118.51 C288.78,120.42 288.92,120.41 296.15,117.84 C310.02,112.92 313.30,111.48 314.35,109.81 C316.81,105.91 300.94,67.84 288.04,46.69 C269.31,15.98 249.62,4.79 230.35,13.91 C219.05,19.26 204.27,35.29 193.38,54.00 C187.84,63.51 177.31,86.82 173.45,98.10 C169.93,108.40 163.55,134.06 160.54,150.07 C159.14,157.46 157.35,166.88 156.55,171.00 C151.31,197.96 150.60,207.65 150.55,252.17 L 150.50 294.83 L 153.00 297.50 C157.78,302.61 193.47,326.86 210.89,336.84 C238.58,352.70 257.03,361.62 297.50,378.72 C327.63,391.44 356.03,399.32 386.50,403.41 C388.15,403.63 395.35,403.70 402.50,403.57 C413.58,403.37 416.56,402.95 422.71,400.74 ZM 215.55 364.91 C226.09,358.57 226.34,357.23 217.75,353.10 C214.31,351.45 209.04,348.50 206.04,346.55 C201.60,343.67 200.43,343.27 199.77,344.45 C198.81,346.17 200.92,360.00 202.15,360.00 C202.62,360.00 203.00,361.54 203.00,363.42 C203.00,367.86 203.86,370.00 205.66,370.00 C206.45,370.00 210.90,367.71 215.55,364.91 ZM 326.29 344.56 C327.10,343.76 328.04,339.97 328.44,335.89 C328.84,331.90 329.80,325.01 330.60,320.57 C332.48,310.00 334.71,283.03 335.56,260.50 C336.54,234.34 334.15,200.53 329.34,172.75 L 327.65 163.00 L 324.51 163.00 C322.31,163.00 320.50,163.92 318.44,166.07 C316.10,168.51 314.93,169.03 312.71,168.59 C311.17,168.28 309.15,168.46 308.21,168.99 C307.27,169.52 304.81,170.61 302.75,171.42 C298.46,173.11 298.53,172.73 300.47,184.00 C305.72,214.55 305.98,279.01 300.98,310.00 C297.68,330.46 297.54,332.83 299.53,335.04 C300.51,336.12 302.04,337.00 302.93,337.00 C303.82,337.00 305.44,337.61 306.53,338.36 C307.61,339.10 310.98,340.52 314.00,341.50 C317.02,342.48 320.39,343.90 321.47,344.64 C323.95,346.35 324.52,346.34 326.29,344.56 ZM 289.26 322.99 C289.68,319.97 290.70,313.21 291.51,307.96 C293.33,296.29 293.34,297.00 291.38,297.00 C290.05,297.00 271.56,308.54 263.50,314.39 L 261.50 315.84 L 263.50 317.39 C264.60,318.24 266.99,319.44 268.80,320.06 C270.62,320.68 275.12,322.95 278.80,325.11 C282.49,327.27 286.17,328.91 286.99,328.76 C287.98,328.57 288.75,326.62 289.26,322.99 ZM 248.92 297.87 C263.40,295.38 276.37,285.35 283.03,271.50 C285.91,265.50 286.45,263.19 286.81,255.31 C287.33,243.95 284.96,235.17 278.93,226.14 C271.11,214.43 260.67,208.30 246.87,207.33 C232.39,206.31 221.33,210.12 211.80,219.42 C192.90,237.87 193.62,269.55 213.31,286.26 C220.97,292.77 226.90,295.86 234.61,297.40 C238.40,298.15 241.69,298.82 241.92,298.88 C242.15,298.95 245.30,298.49 248.92,297.87 ZM 387.05 282.28 C388.67,280.51 392.47,277.93 395.50,276.54 C399.26,274.82 401.00,273.45 401.00,272.19 C401.00,269.22 371.36,242.08 357.64,232.49 C354.01,229.95 350.78,227.45 350.46,226.94 C349.61,225.57 346.28,225.79 345.80,227.25 C345.57,227.94 345.41,233.49 345.44,239.59 C345.48,247.55 345.89,251.17 346.90,252.37 C348.00,253.70 348.05,254.59 347.15,256.58 C346.52,257.96 346.00,259.71 346.00,260.47 C346.00,261.23 351.51,266.55 358.25,272.30 C364.99,278.05 372.47,284.70 374.88,287.08 L 379.26 291.40 L 381.68 288.45 C383.02,286.83 385.43,284.05 387.05,282.28 ZM 139.00 254.50 C139.00,228.32 138.74,222.00 137.69,222.00 C136.96,222.00 133.14,224.72 129.20,228.04 C123.47,232.86 121.66,233.89 120.26,233.13 C117.91,231.87 94.01,207.36 86.28,198.31 C78.54,189.24 71.73,178.83 67.16,169.09 C63.93,162.22 63.59,160.66 63.55,152.64 L 63.50 143.77 L 67.27 140.51 C72.35,136.12 78.04,134.69 88.70,135.13 L 97.50 135.50 L 97.75 126.58 C97.92,120.08 98.54,116.53 100.00,113.51 C102.98,107.35 102.68,106.34 97.75,105.78 C91.28,105.05 73.18,105.83 67.00,107.11 C53.19,109.96 40.46,119.26 35.41,130.21 C32.62,136.24 32.50,137.08 32.58,150.50 C32.65,163.72 32.83,164.98 35.85,173.00 C39.62,183.01 42.66,188.94 48.94,198.54 C59.46,214.63 82.66,240.32 104.74,260.35 C114.38,269.09 136.80,286.90 138.25,286.96 C138.66,286.98 139.00,272.38 139.00,254.50 ZM 397.55 243.82 C401.13,240.68 417.69,222.21 425.64,212.50 C435.45,200.51 445.06,182.84 449.58,168.50 C451.95,161.00 452.42,157.75 452.42,149.00 C452.42,139.67 452.10,137.72 449.51,131.50 C445.84,122.65 438.56,115.09 429.77,110.98 C419.87,106.35 403.97,104.39 388.04,105.85 C374.35,107.10 368.39,108.04 360.00,110.28 C356.98,111.09 350.29,112.74 345.16,113.95 C320.96,119.64 297.18,128.22 264.50,143.04 C255.15,147.28 244.12,152.22 240.00,154.02 C235.88,155.82 230.93,158.28 229.00,159.49 C227.07,160.70 219.09,164.94 211.25,168.91 C196.28,176.50 195.12,177.63 196.24,183.48 C196.50,184.83 196.27,186.08 195.73,186.26 C195.18,186.44 194.57,189.94 194.35,194.04 C194.13,198.14 193.51,203.73 192.97,206.46 C192.21,210.29 192.28,211.71 193.31,212.74 C194.42,213.85 196.35,213.02 204.83,207.79 C222.23,197.05 228.80,193.52 251.50,182.69 C294.69,162.07 306.30,157.32 338.50,147.04 C366.57,138.08 387.67,134.26 403.61,135.26 C417.19,136.10 421.00,139.68 421.00,151.58 C421.00,168.44 407.29,191.41 382.56,215.98 C376.20,222.30 371.00,228.25 371.00,229.21 C371.00,230.17 372.24,231.74 373.75,232.70 C377.63,235.16 389.75,244.78 390.49,245.99 C391.59,247.77 393.84,247.08 397.55,243.82 ZM 290.98 192.10 C288.39,175.72 288.80,176.07 278.23,181.36 C274.53,183.21 269.79,185.28 267.70,185.96 C263.13,187.44 263.06,189.81 267.51,191.86 C271.07,193.50 289.92,206.06 290.69,207.31 C290.98,207.78 291.67,207.73 292.22,207.18 C292.87,206.53 292.45,201.41 290.98,192.10 ZM 208.27 158.93 C211.01,157.24 215.67,154.79 218.63,153.49 C221.59,152.18 224.00,150.45 224.00,149.65 C224.00,148.83 221.06,146.81 217.25,145.02 C209.37,141.33 205.51,140.37 204.57,141.88 C203.48,143.65 200.87,159.98 201.52,161.03 C202.39,162.43 202.77,162.32 208.27,158.93 ZM 139.78 146.61 C145.43,143.74 147.38,141.72 149.58,136.46 C151.74,131.30 151.77,124.74 149.65,118.42 C145.67,106.52 132.53,100.86 121.00,106.08 C114.76,108.91 112.34,111.47 110.01,117.70 C106.31,127.60 107.83,135.20 114.88,142.04 C122.35,149.29 131.27,150.92 139.78,146.61 ZM 413.66 340.95 C410.99,340.50 408.07,339.49 407.16,338.69 C406.24,337.89 404.48,336.92 403.23,336.54 C401.98,336.16 399.20,333.48 397.07,330.59 C384.76,313.93 396.74,291.04 417.79,291.01 C425.02,291.00 429.75,293.00 434.70,298.16 C439.37,303.03 441.00,307.78 441.00,316.51 C441.00,327.97 436.68,334.86 426.50,339.63 C421.12,342.16 420.95,342.18 413.66,340.95 ZM 425.58 329.80 C429.69,326.19 431.36,321.31 430.80,314.57 C430.10,306.19 424.65,300.84 416.62,300.65 C404.99,300.37 397.36,313.95 402.97,324.95 C406.16,331.20 409.33,333.08 416.31,332.87 C421.33,332.72 422.81,332.23 425.58,329.80 Z" fill="rgb(254,254,254)"/>
</g>
</svg>