<svg xmlns="http://www.w3.org/2000/svg" width="487" height="529" viewBox="0 0 487 529">
<g>
<path d="M 429.24 406.97 C414.01,412.08 400.37,411.82 370.50,405.85 C352.65,402.29 345.11,400.25 326.50,393.96 C303.18,386.07 252.13,363.40 230.50,351.33 C227.75,349.79 221.90,346.55 217.50,344.13 C208.78,339.32 204.39,336.58 187.00,325.10 C170.21,314.02 156.62,304.35 154.42,301.91 C152.59,299.88 152.50,297.84 152.54,256.64 C152.58,217.59 152.79,212.03 154.79,198.00 C158.08,174.96 161.68,156.05 167.65,130.50 C180.57,75.22 206.50,28.68 232.40,14.33 C236.99,11.78 238.44,11.50 247.00,11.50 C259.77,11.50 265.40,14.16 276.40,25.36 C285.93,35.06 293.54,46.41 302.83,64.77 C308.95,76.85 318.60,100.72 320.34,108.09 C321.17,111.57 319.26,113.72 314.95,114.18 C312.15,114.47 311.36,114.19 311.26,112.84 C310.88,107.77 301.46,83.78 293.07,66.50 C285.70,51.35 279.00,41.33 269.77,31.67 C257.46,18.79 246.85,15.97 234.44,22.29 C229.34,24.88 219.63,34.12 213.71,42.00 C201.94,57.67 190.69,81.44 181.02,111.06 C174.39,131.37 167.38,168.25 162.98,206.00 C161.38,219.74 160.21,258.65 160.78,279.17 L 161.27 296.83 L 167.38 301.20 C173.38,305.48 183.25,312.03 203.80,325.38 C212.59,331.09 253.09,354.00 254.39,354.00 C254.64,354.00 259.04,355.99 264.17,358.41 C295.08,373.04 316.61,381.40 345.45,389.99 C366.24,396.19 377.61,398.51 394.58,400.04 C409.79,401.40 417.12,400.60 427.61,396.44 C437.59,392.48 441.33,389.14 445.73,380.24 C449.05,373.53 449.54,371.58 449.82,364.06 C450.06,357.88 449.70,354.46 448.56,351.75 C446.77,347.52 445.58,347.20 442.00,350.00 C440.62,351.08 438.99,351.97 438.36,351.98 C436.56,352.01 436.04,354.52 436.68,359.97 C437.19,364.24 437.03,365.00 435.61,365.00 C434.34,365.00 433.99,365.79 434.16,368.28 C434.64,375.39 425.14,382.99 412.50,385.62 C405.58,387.06 403.29,387.12 395.50,386.05 C368.78,382.39 352.27,378.66 335.53,372.49 C330.56,370.66 320.88,367.15 314.00,364.69 C307.12,362.22 297.57,358.36 292.77,356.10 C287.97,353.85 283.78,352.00 283.45,352.00 C281.74,352.00 238.48,329.99 226.00,322.77 C209.69,313.34 180.35,294.06 175.75,289.76 L 172.72 286.94 L 173.29 257.72 C174.03,219.05 177.74,182.10 183.61,155.00 C184.98,148.68 186.77,140.35 187.60,136.50 C192.34,114.51 205.32,79.44 214.57,63.65 C219.96,54.45 229.69,44.29 236.11,41.19 C245.24,36.77 257.45,39.51 265.79,47.86 C274.72,56.79 287.94,81.76 293.92,101.00 C299.44,118.77 299.91,120.42 299.63,120.70 C299.48,120.86 297.97,121.26 296.27,121.60 C292.49,122.35 290.69,120.06 288.52,111.74 C287.72,108.67 284.76,100.39 281.93,93.33 C270.36,64.41 258.11,48.00 248.09,48.00 C238.12,48.00 227.42,60.01 215.60,84.46 C207.64,100.94 196.58,138.24 192.91,161.00 C191.80,167.88 190.46,175.14 189.94,177.14 C189.41,179.14 188.31,188.59 187.49,198.14 C183.20,248.00 181.98,280.80 184.30,284.34 C188.86,291.29 252.52,328.59 279.01,339.83 C282.03,341.11 287.88,343.77 292.00,345.73 C304.49,351.68 312.12,355.00 313.34,355.01 C313.98,355.01 315.85,355.74 317.50,356.63 C319.15,357.52 326.96,360.43 334.85,363.10 C347.59,367.42 354.46,369.37 375.00,374.53 C391.91,378.77 412.01,378.96 420.20,374.95 C424.07,373.06 425.28,371.77 427.03,367.71 C430.22,360.29 429.32,358.38 422.26,357.57 C409.73,356.11 397.23,347.13 391.59,335.50 C389.10,330.39 388.68,328.36 388.75,321.78 C388.84,312.14 390.04,308.48 395.32,301.68 C400.77,294.66 404.55,291.55 411.52,288.36 C416.52,286.07 418.16,285.81 425.04,286.21 C434.94,286.78 444.01,290.94 449.85,297.56 C455.10,303.53 456.77,307.31 458.04,316.12 C458.96,322.53 458.84,324.48 457.12,330.93 L 455.14 338.35 L 457.70 345.93 C459.77,352.05 460.28,355.51 460.34,364.00 C460.41,373.59 460.15,375.12 457.36,381.62 C451.55,395.15 443.87,402.07 429.24,406.97 ZM 258.58 503.53 C247.38,507.10 234.72,505.33 225.30,498.88 C200.20,481.67 179.15,441.03 166.34,385.08 C163.88,374.31 161.25,361.67 160.50,357.00 C156.67,333.20 156.09,329.08 155.80,324.03 C155.55,319.38 155.78,318.51 157.34,318.19 C158.35,317.99 160.15,318.71 161.34,319.80 C162.53,320.88 165.30,322.75 167.50,323.94 C169.70,325.13 175.55,328.72 180.50,331.92 L 189.50 337.73 L 190.32 343.62 C197.83,397.67 217.62,450.07 235.92,464.35 C241.50,468.70 246.14,469.47 251.76,466.99 C254.37,465.84 258.22,463.24 260.32,461.20 C268.23,453.54 281.78,427.49 288.31,407.40 C293.00,392.97 294.02,392.00 300.38,395.93 C302.23,397.07 304.69,398.00 305.85,398.00 C309.47,398.00 321.17,402.27 321.76,403.81 C323.07,407.22 308.82,443.26 299.50,460.11 C286.42,483.75 271.72,499.35 258.58,503.53 ZM 258.41 301.83 C247.44,304.61 236.08,303.34 226.83,298.31 C219.85,294.52 208.83,283.64 205.76,277.50 C196.84,259.72 200.62,237.22 214.91,222.93 C221.27,216.57 226.24,213.69 234.68,211.50 C256.00,205.94 276.40,214.66 286.14,233.50 C294.60,249.87 294.37,266.96 285.49,281.02 C279.58,290.37 267.76,299.46 258.41,301.83 ZM 141.76 257.93 C141.91,276.05 141.64,291.11 141.16,291.40 C140.46,291.83 130.90,284.88 113.28,271.13 C112.06,270.18 104.23,262.90 95.89,254.95 C64.64,225.19 42.59,195.75 35.77,174.67 C30.50,158.40 30.81,141.42 36.58,129.89 C41.17,120.73 55.90,110.77 68.80,108.10 C76.61,106.48 102.46,106.64 103.85,108.32 C105.28,110.04 101.80,116.72 99.84,116.03 C99.10,115.76 94.26,115.39 89.08,115.20 C67.73,114.41 51.27,120.86 44.32,132.73 C41.99,136.70 41.51,138.80 41.17,146.75 C40.94,151.89 41.30,158.86 41.97,162.24 C46.08,183.14 62.76,208.60 91.00,237.07 C105.74,251.94 128.82,272.23 130.39,271.71 C131.02,271.50 131.63,268.32 131.79,264.36 L 132.08 257.38 L 123.81 250.44 C119.26,246.62 108.54,236.52 99.98,228.00 C66.62,194.78 49.94,164.60 54.88,146.40 C58.37,133.58 67.91,128.29 88.38,127.86 L 99.25 127.63 L 99.65 132.24 C99.89,135.04 99.59,137.13 98.90,137.56 C98.27,137.95 92.75,138.32 86.63,138.39 C77.13,138.48 74.88,138.83 71.28,140.75 C68.96,141.99 66.65,143.79 66.13,144.75 C64.38,148.04 63.81,155.75 64.92,161.13 C66.66,169.47 75.25,185.34 83.79,195.96 C91.74,205.84 121.62,237.00 123.15,237.00 C123.63,237.00 127.35,234.30 131.42,231.00 C135.49,227.70 139.42,225.00 140.16,225.00 C141.25,225.00 141.55,231.21 141.76,257.93 ZM 235.50 291.28 C241.56,293.79 253.53,292.96 260.52,289.54 C268.64,285.56 277.47,275.47 280.01,267.24 C283.81,254.94 281.73,242.45 274.23,232.54 C266.84,222.77 257.39,218.54 244.31,219.14 C230.44,219.78 219.87,226.70 213.23,239.50 C209.52,246.65 208.90,260.12 211.92,268.00 C216.06,278.81 223.79,286.44 235.50,291.28 ZM 236.20 495.00 C237.47,495.54 241.88,495.87 246.01,495.74 C253.05,495.51 253.94,495.22 260.01,491.13 C273.70,481.92 280.47,473.38 292.87,449.68 C300.17,435.74 308.57,415.02 309.17,409.49 C309.47,406.80 309.02,406.26 304.69,404.11 C301.84,402.70 299.51,402.09 298.98,402.62 C298.48,403.12 296.30,408.24 294.12,414.01 C285.74,436.25 281.59,444.75 273.14,456.99 C263.23,471.34 255.24,477.02 245.05,476.97 C233.45,476.91 222.45,467.33 211.07,447.34 C204.57,435.93 201.38,428.16 194.06,406.00 C187.73,386.85 186.41,382.01 185.47,374.50 C185.12,371.75 183.91,365.00 182.77,359.50 C181.63,354.00 180.50,347.59 180.25,345.27 C179.90,342.01 179.01,340.34 176.39,338.04 C171.87,334.07 167.29,331.73 166.50,332.99 C166.17,333.54 166.82,339.14 167.95,345.44 C169.08,351.75 170.00,359.06 170.01,361.70 C170.02,367.22 175.97,391.66 182.62,413.50 C187.68,430.13 198.31,453.34 206.88,466.50 C214.68,478.48 228.19,491.61 236.20,495.00 ZM 408.99 243.25 C404.46,247.90 400.63,251.00 399.41,251.00 C398.29,251.00 396.05,249.61 394.44,247.92 L 391.50 244.84 L 393.57 243.16 C397.09,240.29 415.73,220.16 421.82,212.64 C447.12,181.43 455.74,154.53 446.97,134.16 C443.29,125.60 435.44,120.28 420.83,116.43 C408.49,113.18 377.10,116.08 354.68,122.54 C327.54,130.36 311.79,135.56 297.92,141.29 C289.44,144.79 280.92,148.26 279.00,148.99 C273.56,151.07 216.37,179.40 208.28,184.03 C204.31,186.30 200.59,187.87 200.03,187.52 C198.35,186.48 198.84,180.45 200.75,178.77 C201.71,177.93 208.96,174.03 216.86,170.11 C224.75,166.19 232.40,162.16 233.86,161.15 C238.16,158.16 287.16,136.61 310.00,127.66 C326.07,121.37 362.15,111.82 382.50,108.48 C393.95,106.61 414.63,106.58 424.30,108.43 C439.55,111.35 452.36,121.09 457.55,133.72 C460.03,139.75 460.34,141.72 460.32,151.55 C460.30,161.29 459.91,163.78 457.04,172.55 C450.08,193.78 433.69,217.90 408.99,243.25 ZM 384.41 234.64 C382.71,235.94 381.05,237.00 380.73,237.00 C379.46,237.00 377.00,233.76 377.00,232.08 C377.00,231.10 382.30,225.17 388.77,218.90 C413.33,195.12 428.00,170.49 428.00,153.06 C428.00,143.61 424.71,140.22 413.39,138.00 C402.50,135.85 375.86,140.11 347.00,148.60 C322.97,155.67 302.77,163.37 287.00,171.46 C284.52,172.73 281.38,174.08 280.00,174.47 C272.04,176.70 219.60,203.84 204.18,213.71 C197.18,218.19 195.42,217.82 195.77,211.96 C195.92,209.51 196.22,207.00 196.43,206.40 C197.90,202.27 271.54,165.36 305.09,151.93 C337.24,139.06 382.85,128.00 403.75,128.00 C417.25,128.00 424.20,130.10 430.03,135.95 C436.67,142.63 438.58,151.37 435.90,162.81 C434.27,169.72 425.97,186.35 419.57,195.50 C413.70,203.90 389.72,230.59 384.41,234.64 ZM 118.36 407.06 C106.00,409.38 81.72,410.39 72.50,408.98 C64.27,407.72 54.47,403.74 48.57,399.25 C43.07,395.07 35.71,385.01 33.94,379.26 C31.81,372.32 31.60,357.79 33.51,349.79 C35.56,341.20 44.68,321.56 51.45,311.15 C57.67,301.58 74.60,280.39 83.03,271.62 C88.66,265.76 90.05,264.80 92.14,265.32 C96.81,266.49 95.20,270.06 85.47,280.14 C64.92,301.43 45.05,332.81 41.50,349.58 C39.50,359.00 39.65,372.37 41.81,377.65 C45.52,386.74 55.94,395.17 68.00,398.82 C79.32,402.24 107.35,400.14 131.00,394.09 C141.31,391.45 153.58,387.55 154.12,386.74 C154.81,385.69 157.00,391.30 157.00,394.13 C157.00,395.13 155.99,396.60 154.75,397.39 C151.83,399.26 132.22,404.47 118.36,407.06 ZM 416.00 344.52 C419.56,346.59 429.60,346.37 434.50,344.11 C443.95,339.76 448.00,332.83 448.00,321.00 C448.00,311.66 446.39,307.64 440.33,301.81 C435.48,297.14 432.40,296.00 424.68,296.01 C412.88,296.03 403.57,302.78 400.42,313.61 C397.98,322.03 399.10,328.54 404.20,335.41 C406.43,338.43 409.44,341.38 410.88,341.98 C412.32,342.57 414.62,343.72 416.00,344.52 ZM 332.84 349.25 C331.58,351.68 329.01,351.39 325.66,348.44 L 322.82 345.94 L 324.86 333.22 C331.22,293.74 332.94,247.73 329.46,210.50 C327.63,190.89 324.94,173.59 323.47,171.97 C322.04,170.39 322.18,170.03 325.10,167.57 C327.16,165.84 329.20,165.00 330.89,165.20 C333.25,165.47 333.61,166.11 334.71,172.00 C339.72,198.78 342.55,236.96 341.57,264.50 C340.76,287.44 338.55,314.59 336.62,325.50 C335.84,329.90 334.87,336.65 334.47,340.50 C334.08,344.35 333.34,348.29 332.84,349.25 ZM 114.00 382.93 C100.49,385.30 80.93,386.37 74.50,385.09 C46.71,379.56 48.58,347.63 78.94,309.19 C90.47,294.59 91.66,293.15 98.41,285.64 L 105.04 278.26 L 108.52 279.84 C114.47,282.54 113.44,285.21 101.55,298.01 C90.94,309.44 77.03,328.90 71.20,340.50 C65.22,352.37 63.30,364.81 66.48,370.96 C69.32,376.45 84.13,379.59 98.50,377.75 C107.74,376.57 132.50,371.06 142.00,368.07 C151.33,365.14 152.00,365.25 152.00,369.80 C152.00,373.52 151.89,373.63 147.25,374.71 C144.64,375.32 138.90,376.92 134.50,378.27 C130.10,379.63 120.88,381.72 114.00,382.93 ZM 142.99 148.72 C133.15,153.57 124.16,152.06 116.04,144.21 C111.67,139.97 111.11,138.92 110.48,133.76 C108.60,118.47 114.63,108.67 127.56,105.99 C142.96,102.79 155.05,114.76 153.81,131.98 C153.25,139.64 149.44,145.54 142.99,148.72 ZM 310.00 339.70 C310.00,342.44 306.99,342.85 304.57,340.43 C302.56,338.42 302.59,336.89 304.94,320.80 C310.55,282.35 310.76,222.91 305.40,187.17 C304.55,181.48 304.08,176.24 304.36,175.51 C304.95,173.98 315.59,170.63 317.03,171.52 C318.72,172.56 318.08,174.02 315.50,175.00 C312.52,176.13 312.42,177.52 314.42,191.00 C318.49,218.54 319.81,267.60 317.17,293.50 C315.24,312.50 311.90,335.41 310.91,336.45 C310.41,336.97 310.00,338.43 310.00,339.70 ZM 388.41 293.17 C387.61,294.72 386.62,295.99 386.22,295.98 C385.83,295.97 382.77,293.38 379.44,290.23 C376.11,287.08 369.86,281.58 365.56,278.00 C352.49,267.15 351.90,266.57 351.92,264.50 C351.95,261.19 353.18,256.00 353.93,256.00 C354.32,256.00 357.79,258.81 361.65,262.25 C365.51,265.69 371.33,270.83 374.58,273.67 C377.84,276.51 382.52,280.66 385.00,282.89 C387.48,285.12 390.05,286.96 390.72,286.97 C392.21,287.01 399.00,281.16 399.00,279.84 C399.00,278.21 384.13,264.68 369.00,252.55 C361.02,246.15 353.71,240.27 352.75,239.47 C351.56,238.48 351.00,236.59 351.00,233.51 C351.00,227.76 352.78,227.58 359.59,232.68 C362.29,234.71 366.30,237.72 368.50,239.38 C374.38,243.80 392.37,259.46 400.77,267.46 C408.88,275.17 409.55,277.47 404.46,279.99 C399.23,282.59 389.95,290.20 388.41,293.17 ZM 125.50 139.77 C131.04,142.95 135.27,142.20 140.34,137.13 C143.59,133.88 144.35,132.35 144.73,128.35 C145.09,124.42 144.73,122.84 142.81,120.01 C139.89,115.72 136.71,114.03 131.50,114.02 C117.30,113.98 112.97,132.57 125.50,139.77 ZM 294.53 327.18 C294.17,330.30 293.34,333.28 292.69,333.78 C291.05,335.05 267.06,323.06 267.03,320.95 C267.00,319.21 293.76,301.00 296.36,301.00 C298.35,301.00 298.35,301.20 296.59,312.50 C295.82,317.45 294.89,324.06 294.53,327.18 ZM 297.51 209.98 C296.55,211.54 295.88,211.28 290.50,207.21 C283.94,202.25 275.25,196.60 271.50,194.86 C267.17,192.86 267.56,190.03 272.38,188.36 C274.51,187.62 279.61,185.40 283.71,183.43 C291.66,179.61 293.65,179.56 294.43,183.21 C295.83,189.83 298.05,209.11 297.51,209.98 ZM 220.49 157.04 C216.64,158.99 211.92,161.56 209.99,162.75 C204.29,166.26 203.61,164.92 205.51,153.95 C206.40,148.81 207.35,144.24 207.62,143.80 C208.60,142.23 212.20,143.06 220.08,146.66 C225.75,149.25 228.00,150.78 227.78,151.90 C227.61,152.77 224.33,155.09 220.49,157.04 ZM 219.13 370.92 C214.25,373.72 209.77,376.00 209.17,376.00 C207.49,376.00 206.00,372.53 206.00,368.61 C206.00,365.38 206.38,364.92 210.71,363.01 C213.31,361.86 216.22,360.20 217.20,359.32 C218.83,357.85 219.34,357.86 223.49,359.44 C227.06,360.81 228.00,361.65 228.00,363.51 C228.00,365.41 226.32,366.81 219.13,370.92 ZM 430.00 337.00 C426.25,339.06 419.51,339.64 418.50,338.00 C418.14,337.42 419.08,337.00 420.70,337.00 C425.33,337.00 430.18,335.20 433.10,332.40 C435.34,330.26 435.81,330.10 435.59,331.56 C435.45,332.55 434.47,333.70 433.42,334.11 C432.36,334.52 431.95,334.91 432.50,334.97 C433.05,335.03 431.92,335.95 430.00,337.00 Z" fill="rgb(70,47,47)"/>
<path d="M 392.00 397.97 C412.81,399.72 425.36,397.62 435.80,390.64 C439.58,388.11 441.28,385.94 444.50,379.50 C448.34,371.81 448.50,371.12 448.50,361.79 C448.50,354.31 448.14,351.71 446.94,350.51 C445.52,349.09 444.98,349.23 441.18,351.99 C437.18,354.88 437.01,355.21 437.61,358.97 C439.48,370.68 430.63,382.18 416.42,386.49 C409.59,388.56 397.65,388.36 383.50,385.93 C376.90,384.80 368.80,383.43 365.50,382.88 C358.52,381.73 343.53,377.32 333.50,373.46 C329.65,371.98 320.42,368.60 313.00,365.94 C305.58,363.28 295.67,359.23 291.00,356.95 C286.33,354.66 280.48,351.98 278.00,350.99 C275.52,350.01 268.48,346.68 262.34,343.60 C256.21,340.52 250.95,338.00 250.66,338.00 C250.37,338.00 247.97,336.70 245.32,335.10 C242.67,333.51 232.85,327.86 223.50,322.55 C214.15,317.23 200.43,308.60 193.00,303.37 C185.57,298.13 177.98,292.90 176.12,291.75 L 172.73 289.65 L 172.78 286.99 L 175.75 289.76 C180.35,294.06 209.69,313.34 226.00,322.77 C238.48,329.99 281.74,352.00 283.45,352.00 C283.78,352.00 287.97,353.85 292.77,356.10 C297.57,358.36 307.12,362.22 314.00,364.69 C320.88,367.15 330.56,370.66 335.53,372.49 C352.27,378.66 368.78,382.39 395.50,386.05 C403.29,387.12 405.58,387.06 412.50,385.62 C425.14,382.99 434.64,375.39 434.16,368.28 C433.99,365.79 434.34,365.00 435.61,365.00 C437.03,365.00 437.19,364.24 436.68,359.97 C436.04,354.52 436.56,352.01 438.36,351.98 C438.99,351.97 440.62,351.08 442.00,350.00 C445.58,347.20 446.77,347.52 448.56,351.75 C449.70,354.46 450.06,357.88 449.82,364.06 C449.54,371.58 449.05,373.53 445.73,380.24 C441.33,389.14 437.59,392.48 427.61,396.44 C417.12,400.60 409.79,401.40 394.58,400.04 C377.61,398.51 366.24,396.19 345.45,389.99 C316.61,381.40 295.08,373.04 264.17,358.41 C259.04,355.99 254.64,354.00 254.39,354.00 C253.09,354.00 212.59,331.09 203.80,325.38 C183.25,312.03 173.38,305.48 167.38,301.20 L 161.27 296.83 L 160.78 279.17 C160.60,272.87 160.59,264.85 160.70,256.35 C160.61,276.82 161.38,294.81 163.01,296.37 C165.92,299.16 185.21,312.18 202.39,322.96 C219.04,333.41 249.84,350.31 261.86,355.60 C264.96,356.97 270.65,359.65 274.50,361.55 C278.35,363.46 285.55,366.64 290.50,368.62 C295.45,370.60 304.30,374.19 310.16,376.59 C322.21,381.53 360.77,393.08 373.25,395.49 C377.79,396.37 386.23,397.48 392.00,397.97 ZM 114.00 382.93 C120.88,381.72 130.10,379.63 134.50,378.27 C138.90,376.92 144.64,375.32 147.25,374.71 C151.89,373.63 152.00,373.52 152.00,369.80 C152.00,367.43 151.82,366.27 150.33,366.11 C151.71,366.21 152.00,367.09 152.00,368.80 C152.00,370.34 152.91,375.63 154.03,380.55 C154.92,384.48 155.58,387.38 156.03,389.56 C155.36,387.64 154.51,386.15 154.12,386.74 C153.58,387.55 141.31,391.45 131.00,394.09 C107.35,400.14 79.32,402.24 68.00,398.82 C55.94,395.17 45.52,386.74 41.81,377.65 C39.65,372.37 39.50,359.00 41.50,349.58 C45.05,332.81 64.92,301.43 85.47,280.14 C92.54,272.82 95.32,268.93 94.52,266.90 C95.01,267.31 95.50,267.77 95.95,268.25 L 99.00 271.50 L 96.52 271.81 C92.60,272.31 72.87,294.82 61.29,312.00 C55.67,320.33 46.83,337.13 44.27,344.34 C42.15,350.29 41.71,353.36 41.65,362.50 C41.58,375.22 42.61,378.46 48.97,385.35 C54.06,390.87 65.14,396.50 74.00,398.06 C81.52,399.39 99.78,398.60 110.50,396.49 C114.35,395.73 120.16,394.64 123.42,394.06 C126.68,393.48 134.44,391.41 140.67,389.47 L 152.00 385.93 L 152.00 382.09 C152.00,375.58 150.36,375.15 139.18,378.75 C127.31,382.58 110.40,385.78 94.63,387.19 C65.83,389.77 53.55,381.89 53.79,361.00 C53.94,347.86 61.24,330.65 73.89,313.63 C79.74,305.74 96.97,285.22 100.38,282.08 C103.24,279.43 103.69,277.12 101.75,275.10 C101.06,274.39 103.07,275.54 106.21,277.65 C108.01,278.86 109.40,279.86 110.35,280.83 C109.85,280.49 109.23,280.16 108.52,279.84 L 105.04 278.26 L 98.41 285.64 C91.66,293.15 90.47,294.59 78.94,309.19 C48.58,347.63 46.71,379.56 74.50,385.09 C80.93,386.37 100.49,385.30 114.00,382.93 ZM 236.20 495.00 C228.19,491.61 214.68,478.48 206.88,466.50 C198.31,453.34 187.68,430.13 182.62,413.50 C175.97,391.66 170.02,367.22 170.01,361.70 C170.00,359.06 169.08,351.75 167.95,345.44 C166.82,339.14 166.17,333.54 166.50,332.99 C166.51,332.99 166.51,332.98 166.52,332.97 C165.80,334.37 172.43,372.63 174.96,381.65 C176.02,385.42 178.43,394.17 180.33,401.10 C185.59,420.34 188.51,428.08 197.14,445.70 C204.42,460.57 207.91,466.28 215.63,476.00 C219.36,480.70 229.16,488.97 234.27,491.75 C237.34,493.41 240.09,494.00 244.76,494.00 C251.71,494.00 254.53,492.88 262.53,486.98 C273.33,479.00 279.62,471.42 286.99,457.50 C289.90,452.00 294.20,443.90 296.55,439.50 C301.13,430.92 307.25,414.09 307.25,410.10 C307.25,407.26 304.61,405.00 301.29,405.00 C298.56,405.00 298.17,405.76 290.91,425.50 C288.08,433.20 284.84,441.08 283.71,443.00 C272.59,461.92 261.29,475.04 253.58,477.97 C247.15,480.41 237.33,478.58 230.13,473.59 C225.79,470.58 216.89,460.14 213.27,453.82 C206.63,442.22 202.18,433.03 201.00,428.50 C200.28,425.75 197.13,415.62 193.99,406.00 C189.67,392.76 187.70,386.35 186.59,381.22 C187.71,386.39 189.69,392.78 194.06,406.00 C201.38,428.16 204.57,435.93 211.07,447.34 C222.45,467.33 233.45,476.91 245.05,476.97 C255.24,477.02 263.23,471.34 273.14,456.99 C281.59,444.75 285.74,436.25 294.12,414.01 C296.30,408.24 298.48,403.12 298.98,402.62 C299.51,402.09 301.84,402.70 304.69,404.11 C309.02,406.26 309.47,406.80 309.17,409.49 C308.57,415.02 300.17,435.74 292.87,449.68 C280.47,473.38 273.70,481.92 260.01,491.13 C253.94,495.22 253.05,495.51 246.01,495.74 C241.88,495.87 237.47,495.54 236.20,495.00 ZM 310.00 339.70 C310.00,338.43 310.41,336.97 310.91,336.45 C311.62,335.70 313.57,323.50 315.33,309.61 C314.62,315.67 313.81,321.62 312.88,327.42 L 310.81 340.35 L 313.15 342.18 C314.50,343.23 316.77,343.90 318.48,343.75 C320.83,343.55 321.65,342.87 322.35,340.50 C322.84,338.85 323.61,336.75 324.08,335.83 C324.34,335.30 324.64,334.18 324.97,332.58 C324.93,332.79 324.90,333.00 324.86,333.22 L 322.82 345.94 L 325.66 348.44 C327.70,350.24 329.46,351.05 330.80,350.85 C329.59,351.13 328.07,350.75 326.47,349.72 C325.39,349.01 322.70,347.85 320.50,347.14 C314.81,345.30 310.47,343.58 307.58,342.01 C308.94,342.13 310.00,341.32 310.00,339.70 ZM 419.35 338.60 C416.07,338.00 413.27,336.37 411.95,333.91 C410.95,332.04 411.04,331.95 412.87,332.93 C413.98,333.52 415.17,334.46 415.50,335.01 C415.84,335.55 418.45,336.00 421.31,336.00 C430.14,335.99 435.36,331.44 437.02,322.31 C437.88,317.62 437.89,317.66 437.66,324.19 C437.39,331.61 436.07,333.86 430.05,336.98 C431.94,335.93 433.05,335.03 432.50,334.97 C431.95,334.91 432.36,334.52 433.42,334.11 C434.47,333.70 435.45,332.55 435.59,331.56 C435.81,330.10 435.34,330.26 433.10,332.40 C430.18,335.20 425.33,337.00 420.70,337.00 C419.08,337.00 418.14,337.42 418.50,338.00 C418.66,338.25 418.95,338.45 419.35,338.60 ZM 320.26 111.13 C320.17,111.55 320.02,111.92 319.80,112.24 C318.94,113.51 317.12,114.12 314.31,115.11 C311.67,116.05 306.44,117.98 302.70,119.40 C301.68,119.80 300.65,120.17 299.69,120.50 C299.72,119.75 298.75,116.55 293.92,101.00 C293.39,99.32 292.81,97.59 292.19,95.83 C293.01,98.03 293.81,100.26 294.57,102.50 C299.67,117.43 299.71,117.50 302.57,117.18 C306.40,116.75 311.00,113.94 310.99,112.03 C310.98,111.19 309.45,106.22 307.58,101.00 C306.19,97.15 304.82,93.45 303.43,89.90 C307.78,100.58 311.04,109.90 311.26,112.84 C311.36,114.19 312.15,114.47 314.95,114.18 C317.81,113.88 319.62,112.83 320.26,111.13 ZM 222.02 358.67 C222.91,359.07 223.72,359.45 224.42,359.81 C224.13,359.69 223.82,359.57 223.49,359.44 C219.34,357.86 218.83,357.85 217.20,359.32 C216.22,360.20 213.31,361.86 210.71,363.01 C206.38,364.92 206.00,365.38 206.00,368.61 C206.00,370.64 206.40,372.56 207.02,373.93 C205.92,371.99 205.00,369.06 205.00,366.79 C205.00,363.79 205.48,363.25 210.25,360.97 C213.14,359.58 215.39,357.90 215.25,357.23 C214.91,355.56 215.18,355.62 222.02,358.67 ZM 318.53 257.25 C318.45,234.05 316.97,208.29 314.42,191.00 C317.39,211.11 318.76,233.99 318.53,257.25 ZM 331.15 259.84 C330.84,278.66 329.52,297.98 327.24,316.41 C328.48,305.45 329.68,291.45 330.39,278.50 C330.75,271.89 331.01,265.74 331.15,259.84 ZM 326.76 187.33 C327.71,193.89 328.66,201.98 329.46,210.50 C329.91,215.26 330.27,220.15 330.54,225.17 C329.85,214.04 328.66,202.34 326.92,188.59 C326.86,188.17 326.81,187.75 326.76,187.33 ZM 284.82 78.24 C278.69,65.38 271.40,53.46 265.79,47.86 C271.72,53.79 278.55,64.84 284.82,78.24 ZM 73.29 282.66 C65.12,292.43 55.74,304.55 51.45,311.15 C56.74,303.01 65.39,291.92 73.29,282.66 ZM 287.96 56.64 C282.27,46.66 276.29,38.49 269.77,31.67 C276.84,39.07 282.43,46.68 287.96,56.64 ZM 280.81 30.12 C284.17,33.95 287.38,38.10 290.09,42.22 C292.17,45.39 294.41,49.14 296.69,53.23 C291.35,43.77 286.33,36.48 280.81,30.12 ZM 304.72 322.32 C304.77,321.96 304.82,321.60 304.87,321.24 C307.13,305.37 308.53,286.74 309.06,267.78 C308.55,286.90 307.17,305.51 304.94,320.80 C304.87,321.32 304.79,321.83 304.72,322.32 ZM 306.67 72.84 C309.78,79.51 312.60,86.14 314.75,92.00 L 314.98 92.61 C312.47,86.20 309.46,79.02 306.67,72.84 ZM 259.99 13.25 C256.29,11.95 252.25,11.50 247.00,11.50 C253.98,11.50 256.37,11.72 259.99,13.25 ZM 296.37 121.58 C295.44,121.84 294.77,122.00 294.48,122.00 C293.74,122.00 292.97,121.50 292.22,120.56 C293.32,121.67 294.60,121.93 296.27,121.60 C296.30,121.59 296.34,121.58 296.37,121.58 ZM 111.25 286.17 C110.02,288.75 106.88,292.28 101.55,298.01 C106.76,292.41 109.88,288.75 111.25,286.17 ZM 175.76 210.20 C177.54,189.56 180.19,170.78 183.61,155.00 C180.22,170.64 177.56,189.56 175.76,210.20 ZM 156.71 395.21 C156.64,395.64 156.50,395.95 156.30,396.21 C155.98,396.63 155.50,396.91 154.86,397.32 C155.65,396.78 156.34,395.97 156.71,395.21 ZM 227.67 364.81 C227.91,364.38 228.00,363.96 228.00,363.51 C228.00,363.06 227.95,362.67 227.81,362.32 C228.33,363.10 228.29,363.91 227.67,364.81 ZM 92.22 265.34 C92.19,265.33 92.16,265.33 92.14,265.32 C91.40,265.13 90.75,265.14 89.96,265.48 C90.45,265.16 90.84,265.00 91.10,265.00 C91.39,265.00 91.77,265.12 92.22,265.34 ZM 170.49 155.58 C168.42,166.84 166.48,179.02 164.80,191.52 C164.15,196.32 163.55,201.15 162.98,206.00 C162.92,206.53 162.86,207.08 162.80,207.65 C162.86,207.06 162.92,206.51 162.98,206.00 C163.54,201.15 164.15,196.31 164.80,191.52 C166.48,179.05 168.41,166.86 170.49,155.58 C173.80,137.59 177.47,121.94 181.02,111.06 C177.47,121.93 173.80,137.60 170.49,155.58 ZM 428.70 337.61 C427.43,338.14 426.10,338.49 424.76,338.69 C426.11,338.47 427.49,338.10 428.70,337.61 ZM 118.36 407.06 C124.83,405.85 132.54,404.07 139.24,402.33 C132.58,404.07 124.90,405.84 118.36,407.06 Z" fill="rgb(154,96,75)"/>
<path d="M 392.00 397.97 C386.23,397.48 377.79,396.37 373.25,395.49 C360.77,393.08 322.21,381.53 310.16,376.59 C304.30,374.19 295.45,370.60 290.50,368.62 C285.55,366.64 278.35,363.46 274.50,361.55 C270.65,359.65 264.96,356.97 261.86,355.60 C249.84,350.31 219.04,333.41 202.39,322.96 C185.21,312.18 165.92,299.16 163.01,296.37 C161.38,294.81 160.61,276.82 160.70,256.35 C160.95,238.19 161.77,217.85 162.80,207.65 C162.86,207.08 162.92,206.53 162.98,206.00 C163.55,201.15 164.15,196.32 164.80,191.52 L 164.80 191.52 C166.47,179.07 168.40,166.92 170.48,155.67 L 170.49 155.58 C173.80,137.60 177.47,121.93 181.02,111.06 C190.69,81.44 201.94,57.67 213.71,42.00 C219.63,34.12 229.34,24.88 234.44,22.29 C246.85,15.97 257.46,18.79 269.77,31.67 C276.84,39.07 282.43,46.68 287.96,56.64 C289.65,59.69 291.34,62.95 293.07,66.50 C296.59,73.75 300.29,82.18 303.43,89.90 C304.82,93.45 306.19,97.15 307.58,101.00 C309.45,106.22 310.98,111.19 310.99,112.03 C311.00,113.94 306.40,116.75 302.57,117.18 C299.71,117.50 299.67,117.43 294.57,102.50 C293.81,100.26 293.01,98.03 292.19,95.83 C290.15,90.11 287.60,84.08 284.82,78.24 L 284.82 78.24 C278.55,64.84 271.72,53.79 265.79,47.86 C257.45,39.51 245.24,36.77 236.11,41.19 C229.69,44.29 219.96,54.45 214.57,63.65 C205.32,79.44 192.34,114.51 187.60,136.50 C186.77,140.35 184.98,148.68 183.61,155.00 C180.22,170.64 177.56,189.56 175.76,210.20 C174.45,225.33 173.60,241.37 173.29,257.72 L 172.72 286.94 L 172.78 286.99 L 172.73 289.65 L 176.12 291.75 C177.98,292.90 185.57,298.13 193.00,303.37 C200.43,308.60 214.15,317.23 223.50,322.55 C232.85,327.86 242.67,333.51 245.32,335.10 C247.97,336.70 250.37,338.00 250.66,338.00 C250.95,338.00 256.21,340.52 262.34,343.60 C268.48,346.68 275.52,350.01 278.00,350.99 C280.48,351.98 286.33,354.66 291.00,356.95 C295.67,359.23 305.58,363.28 313.00,365.94 C320.42,368.60 329.65,371.98 333.50,373.46 C343.53,377.32 358.52,381.73 365.50,382.88 C368.80,383.43 376.90,384.80 383.50,385.93 C397.65,388.36 409.59,388.56 416.42,386.49 C430.63,382.18 439.48,370.68 437.61,358.97 C437.01,355.21 437.18,354.88 441.18,351.99 C444.98,349.23 445.52,349.09 446.94,350.51 C448.14,351.71 448.50,354.31 448.50,361.79 C448.50,371.12 448.34,371.81 444.50,379.50 C441.28,385.94 439.58,388.11 435.80,390.64 C425.36,397.62 412.81,399.72 392.00,397.97 ZM 384.41 234.64 C389.72,230.59 413.70,203.90 419.57,195.50 C425.97,186.35 434.27,169.72 435.90,162.81 C438.58,151.37 436.67,142.63 430.03,135.95 C424.20,130.10 417.25,128.00 403.75,128.00 C382.85,128.00 337.24,139.06 305.09,151.93 C271.54,165.36 197.90,202.27 196.43,206.40 C196.22,207.00 195.92,209.51 195.77,211.96 C195.61,214.67 195.90,216.20 196.94,216.63 C195.97,216.41 195.54,215.52 195.60,213.97 C195.96,205.10 197.62,191.27 199.01,183.97 C198.96,185.59 199.28,187.05 200.03,187.52 C200.59,187.87 204.31,186.30 208.28,184.03 C216.37,179.40 273.56,151.07 279.00,148.99 C280.92,148.26 289.44,144.79 297.92,141.29 C311.79,135.56 327.54,130.36 354.68,122.54 C377.10,116.08 408.49,113.18 420.83,116.43 C435.44,120.28 443.29,125.60 446.97,134.16 C455.74,154.53 447.12,181.43 421.82,212.64 C415.73,220.16 397.09,240.29 393.57,243.16 L 391.50 244.84 L 394.44 247.92 C396.05,249.61 398.29,251.00 399.41,251.00 C398.29,251.00 396.08,249.65 394.50,248.00 C392.92,246.35 391.04,245.00 390.31,245.00 C389.59,245.00 389.00,244.55 389.00,244.00 C389.00,243.45 388.40,243.00 387.66,243.00 C386.92,243.00 384.92,241.54 383.22,239.75 C382.32,238.81 381.31,237.80 380.44,236.95 C380.54,236.98 380.64,237.00 380.73,237.00 C381.05,237.00 382.71,235.94 384.41,234.64 ZM 235.50 291.28 C223.79,286.44 216.06,278.81 211.92,268.00 C208.90,260.12 209.52,246.65 213.23,239.50 C219.87,226.70 230.44,219.78 244.31,219.14 C257.39,218.54 266.84,222.77 274.23,232.54 C281.73,242.45 283.81,254.94 280.01,267.24 C277.47,275.47 268.64,285.56 260.52,289.54 C253.53,292.96 241.56,293.79 235.50,291.28 ZM 185.47 374.50 C185.76,376.83 186.09,378.90 186.59,381.22 C187.70,386.35 189.67,392.76 193.99,406.00 C197.13,415.62 200.28,425.75 201.00,428.50 C202.18,433.03 206.63,442.22 213.27,453.82 C216.89,460.14 225.79,470.58 230.13,473.59 C237.33,478.58 247.15,480.41 253.58,477.97 C261.29,475.04 272.59,461.92 283.71,443.00 C284.84,441.08 288.08,433.20 290.91,425.50 C298.17,405.76 298.56,405.00 301.29,405.00 C304.61,405.00 307.25,407.26 307.25,410.10 C307.25,414.09 301.13,430.92 296.55,439.50 C294.20,443.90 289.90,452.00 286.99,457.50 C279.62,471.42 273.33,479.00 262.53,486.98 C254.53,492.88 251.71,494.00 244.76,494.00 C240.09,494.00 237.34,493.41 234.27,491.75 C229.16,488.97 219.36,480.70 215.63,476.00 C207.91,466.28 204.42,460.57 197.14,445.70 C188.51,428.08 185.59,420.34 180.33,401.10 C178.43,394.17 176.02,385.42 174.96,381.65 C172.43,372.63 165.80,334.37 166.52,332.97 C167.33,331.75 171.89,334.09 176.39,338.04 C179.01,340.34 179.90,342.01 180.25,345.27 C180.50,347.59 181.63,354.00 182.77,359.50 C183.91,365.00 185.12,371.75 185.47,374.50 ZM 94.04 107.08 C99.19,107.22 103.17,107.57 103.72,108.12 C105.03,109.43 104.48,111.34 101.59,115.50 C99.84,118.01 99.50,120.00 99.50,127.67 C99.50,128.53 99.49,129.38 99.47,130.19 L 99.25 127.63 L 88.38 127.86 C67.91,128.29 58.37,133.58 54.88,146.40 C49.94,164.60 66.62,194.78 99.98,228.00 C108.54,236.52 119.26,246.62 123.81,250.44 L 132.08 257.38 L 131.79 264.36 C131.63,268.32 131.02,271.50 130.39,271.71 C128.82,272.23 105.74,251.94 91.00,237.07 C62.76,208.60 46.08,183.14 41.97,162.24 C41.30,158.86 40.94,151.89 41.17,146.75 C41.51,138.80 41.99,136.70 44.32,132.73 C51.27,120.86 67.73,114.41 89.08,115.20 C94.26,115.39 99.10,115.76 99.84,116.03 C101.80,116.72 105.28,110.04 103.85,108.32 C103.32,107.68 99.28,107.27 94.04,107.08 ZM 96.74 269.10 C97.64,269.86 98.57,270.69 99.50,271.57 C102.47,274.35 105.76,277.19 107.81,278.75 C107.32,278.40 106.79,278.04 106.21,277.65 C103.07,275.54 101.06,274.39 101.75,275.10 C103.69,277.12 103.24,279.43 100.38,282.08 C96.97,285.22 79.74,305.74 73.89,313.63 C61.24,330.65 53.94,347.86 53.79,361.00 C53.55,381.89 65.83,389.77 94.63,387.19 C110.40,385.78 127.31,382.58 139.18,378.75 C150.36,375.15 152.00,375.58 152.00,382.09 L 152.00 385.93 L 140.67 389.47 C134.44,391.41 126.68,393.48 123.42,394.06 C120.16,394.64 114.35,395.73 110.50,396.49 C99.78,398.60 81.52,399.39 74.00,398.06 C65.14,396.50 54.06,390.87 48.97,385.35 C42.61,378.46 41.58,375.22 41.65,362.50 C41.71,353.36 42.15,350.29 44.27,344.34 C46.83,337.13 55.67,320.33 61.29,312.00 C72.87,294.82 92.60,272.31 96.52,271.81 L 99.00 271.50 ZM 318.53 257.25 C318.76,233.99 317.39,211.11 314.42,191.00 C312.42,177.52 312.52,176.13 315.50,175.00 C318.05,174.03 318.71,172.60 317.09,171.55 C317.46,171.56 317.79,171.59 318.07,171.65 C319.65,171.97 320.85,171.60 322.69,170.01 C322.40,170.65 322.72,171.14 323.47,171.97 C324.30,172.88 325.52,178.81 326.76,187.33 L 326.76 187.34 C326.81,187.75 326.86,188.17 326.92,188.59 C328.66,202.34 329.85,214.04 330.54,225.17 C331.15,236.29 331.35,247.97 331.15,259.84 L 331.15 259.84 C331.01,265.74 330.75,271.89 330.39,278.50 C329.68,291.45 328.48,305.45 327.24,316.41 L 327.24 316.41 C326.57,321.89 325.81,327.29 324.97,332.58 C324.64,334.18 324.34,335.30 324.08,335.83 C323.61,336.75 322.84,338.85 322.35,340.50 C321.65,342.87 320.83,343.55 318.48,343.75 C316.77,343.90 314.50,343.23 313.15,342.18 L 310.81 340.35 L 312.88 327.42 C313.81,321.62 314.62,315.67 315.33,309.62 L 315.33 309.61 C316.00,304.31 316.64,298.75 317.17,293.50 C318.15,283.86 318.59,271.00 318.53,257.25 ZM 436.75 330.58 C437.32,328.95 437.56,326.92 437.66,324.19 C437.89,317.66 437.88,317.62 437.02,322.31 C435.36,331.44 430.14,335.99 421.31,336.00 C418.45,336.00 415.84,335.55 415.50,335.01 C415.17,334.46 413.98,333.52 412.87,332.93 C411.04,331.95 410.95,332.04 411.95,333.91 C412.30,334.56 412.75,335.15 413.29,335.68 C407.31,330.31 405.56,319.30 410.16,312.34 C413.69,307.00 418.77,304.63 425.33,305.26 C429.63,305.67 430.92,306.33 434.12,309.76 C438.61,314.58 439.72,319.22 438.09,326.48 C437.74,328.06 437.31,329.40 436.75,330.58 ZM 351.93 264.23 C351.82,263.16 352.03,261.96 352.33,260.29 C352.41,259.82 352.51,259.31 352.60,258.75 C353.00,256.33 352.83,255.00 352.13,255.00 C351.39,255.00 351.06,250.76 351.10,242.00 C351.11,240.98 351.11,240.02 351.11,239.13 C351.11,237.88 351.11,236.75 351.12,235.74 C351.35,237.54 351.88,238.75 352.75,239.47 C353.71,240.27 361.02,246.15 369.00,252.55 C384.13,264.68 399.00,278.21 399.00,279.84 C399.00,281.16 392.21,287.01 390.72,286.97 C390.05,286.96 387.48,285.12 385.00,282.89 C382.52,280.66 377.84,276.51 374.58,273.67 C371.33,270.83 365.51,265.69 361.65,262.25 C357.79,258.81 354.32,256.00 353.93,256.00 C353.20,256.00 352.02,260.92 351.93,264.23 ZM 125.50 139.77 C112.97,132.57 117.30,113.98 131.50,114.02 C136.71,114.03 139.89,115.72 142.81,120.01 C144.73,122.84 145.09,124.42 144.73,128.35 C144.35,132.35 143.59,133.88 140.34,137.13 C135.27,142.20 131.04,142.95 125.50,139.77 ZM 222.02 358.67 C215.18,355.62 214.91,355.56 215.25,357.23 C215.39,357.90 213.14,359.58 210.25,360.97 C205.48,363.25 205.00,363.79 205.00,366.79 C205.00,367.33 205.05,367.90 205.14,368.48 C204.73,366.92 204.30,365.09 203.86,363.00 C201.80,353.18 201.54,348.00 203.10,348.00 C203.70,348.00 208.09,350.38 212.85,353.29 C217.61,356.19 222.96,359.17 224.75,359.91 C225.81,360.34 226.58,360.79 227.10,361.30 C226.54,360.80 225.69,360.34 224.42,359.81 C223.72,359.45 222.91,359.07 222.02,358.67 ZM 108.77 279.46 C108.95,279.59 109.11,279.69 109.25,279.78 C110.91,280.78 111.89,281.76 112.03,283.08 C111.89,282.19 111.32,281.48 110.35,280.83 C109.92,280.38 109.39,279.93 108.77,279.46 ZM 430.00 337.00 L 430.05 336.98 C430.33,336.83 430.60,336.68 430.87,336.54 C430.38,336.82 429.86,337.10 429.30,337.38 C427.61,338.23 425.57,338.73 423.50,338.86 C423.91,338.82 424.34,338.76 424.76,338.69 C426.10,338.49 427.43,338.14 428.70,337.61 C429.16,337.42 429.60,337.22 430.00,337.00 ZM 309.41 172.92 C306.87,173.79 304.62,174.83 304.36,175.51 C304.66,174.71 306.83,173.71 309.41,172.92 ZM 355.01 269.07 C356.99,270.87 360.24,273.59 365.56,278.00 C360.38,273.70 357.07,271.03 355.01,269.07 ZM 368.50 239.38 C366.34,237.75 362.44,234.82 359.74,232.80 C362.01,234.45 364.88,236.65 368.50,239.38 ZM 419.35 338.60 C418.13,338.43 416.83,338.02 415.74,337.42 C415.68,337.39 415.62,337.36 415.56,337.32 C416.69,337.92 417.98,338.35 419.35,338.60 ZM 90.97 265.01 C90.72,265.05 90.38,265.21 89.96,265.48 C89.78,265.55 89.59,265.65 89.39,265.77 C90.07,265.27 90.59,265.00 90.90,265.01 C90.92,265.01 90.95,265.01 90.97,265.01 ZM 378.04 234.69 C377.44,233.94 377.00,232.90 377.00,232.11 L 377.00 232.10 C377.01,232.81 377.45,233.79 378.04,234.69 ZM 97.28 137.88 C95.19,138.14 91.19,138.34 86.78,138.38 C80.46,138.45 77.32,138.62 74.89,139.27 C77.31,138.62 80.42,138.45 86.63,138.39 C91.01,138.34 95.08,138.14 97.28,137.88 ZM 332.63 165.73 C333.57,166.41 333.96,167.97 334.71,172.00 C333.96,167.99 333.56,166.42 332.63,165.73 ZM 200.57 178.95 C200.39,179.14 200.23,179.37 200.08,179.62 C200.16,179.42 200.24,179.27 200.32,179.18 C200.36,179.12 200.45,179.04 200.57,178.95 ZM 227.68 364.80 C227.63,364.88 227.59,364.96 227.54,365.03 C227.58,364.96 227.63,364.88 227.67,364.81 Z" fill="rgb(239,145,93)"/>
<path d="M 0.00 264.50 L 0.00 0.00 L 243.50 0.00 L 487.00 0.00 L 487.00 264.50 L 487.00 529.00 L 243.50 529.00 L 0.00 529.00 L 0.00 264.50 ZM 258.58 503.53 C271.72,499.35 286.42,483.75 299.50,460.11 C308.82,443.26 323.07,407.22 321.76,403.81 C321.17,402.27 309.47,398.00 305.85,398.00 C304.69,398.00 302.23,397.07 300.38,395.93 C294.02,392.00 293.00,392.97 288.31,407.40 C281.78,427.49 268.23,453.54 260.32,461.20 C258.22,463.24 254.37,465.84 251.76,466.99 C246.14,469.47 241.50,468.70 235.92,464.35 C217.62,450.07 197.83,397.67 190.32,343.62 L 189.50 337.73 L 180.50 331.92 C175.55,328.72 169.70,325.13 167.50,323.94 C165.30,322.75 162.53,320.88 161.34,319.80 C160.15,318.71 158.35,317.99 157.34,318.19 C155.78,318.51 155.55,319.38 155.80,324.03 C156.09,329.08 156.67,333.20 160.50,357.00 C161.25,361.67 163.88,374.31 166.34,385.08 C179.15,441.03 200.20,481.67 225.30,498.88 C234.72,505.33 247.38,507.10 258.58,503.53 ZM 429.24 406.97 C443.87,402.07 451.55,395.15 457.36,381.62 C460.15,375.12 460.41,373.59 460.34,364.00 C460.28,355.51 459.77,352.05 457.70,345.93 L 455.14 338.35 L 457.12 330.93 C458.84,324.48 458.96,322.53 458.04,316.12 C456.77,307.31 455.10,303.53 449.85,297.56 C444.01,290.94 434.94,286.78 425.04,286.21 C418.16,285.81 416.52,286.07 411.52,288.36 C404.55,291.55 400.77,294.66 395.32,301.68 C390.04,308.48 388.84,312.14 388.75,321.78 C388.68,328.36 389.10,330.39 391.59,335.50 C397.23,347.13 409.73,356.11 422.26,357.57 C429.32,358.38 430.22,360.29 427.03,367.71 C425.28,371.77 424.07,373.06 420.20,374.95 C412.01,378.96 391.91,378.77 375.00,374.53 C354.46,369.37 347.59,367.42 334.85,363.10 C326.96,360.43 319.15,357.52 317.50,356.63 C315.85,355.74 313.98,355.01 313.34,355.01 C312.12,355.00 304.49,351.68 292.00,345.73 C287.88,343.77 282.03,341.11 279.01,339.83 C252.52,328.59 188.86,291.29 184.30,284.34 C181.98,280.80 183.20,248.00 187.49,198.14 C188.31,188.59 189.41,179.14 189.94,177.14 C190.46,175.14 191.80,167.88 192.91,161.00 C196.58,138.24 207.64,100.94 215.60,84.46 C227.42,60.01 238.12,48.00 248.09,48.00 C258.11,48.00 270.36,64.41 281.93,93.33 C284.76,100.39 287.72,108.67 288.52,111.74 C290.19,118.15 292.42,122.00 294.48,122.00 C295.26,122.00 298.97,120.83 302.70,119.40 C306.44,117.98 311.67,116.05 314.31,115.11 C322.32,112.29 322.31,112.51 314.75,92.00 C308.93,76.19 298.27,54.68 290.09,42.22 C282.26,30.29 270.20,18.13 262.50,14.40 C257.17,11.82 255.44,11.50 247.00,11.50 C238.44,11.50 236.99,11.78 232.40,14.33 C206.50,28.68 180.57,75.22 167.65,130.50 C161.68,156.05 158.08,174.96 154.79,198.00 C152.79,212.03 152.58,217.59 152.54,256.64 C152.50,297.84 152.59,299.88 154.42,301.91 C156.62,304.35 170.21,314.02 187.00,325.10 C204.39,336.58 208.78,339.32 217.50,344.13 C221.90,346.55 227.75,349.79 230.50,351.33 C252.13,363.40 303.18,386.07 326.50,393.96 C345.11,400.25 352.65,402.29 370.50,405.85 C400.37,411.82 414.01,412.08 429.24,406.97 ZM 118.36 407.06 C132.45,404.43 151.85,399.25 154.86,397.32 C157.51,395.62 157.53,395.97 154.03,380.55 C152.91,375.63 152.00,370.34 152.00,368.80 C152.00,365.37 150.85,365.29 142.00,368.07 C132.50,371.06 107.74,376.57 98.50,377.75 C84.13,379.59 69.32,376.45 66.48,370.96 C63.30,364.81 65.22,352.37 71.20,340.50 C77.03,328.90 90.94,309.44 101.55,298.01 C113.05,285.63 114.26,282.79 109.25,279.78 C107.74,278.87 103.35,275.17 99.50,271.57 C95.65,267.96 91.78,265.01 90.90,265.01 C87.57,264.99 62.04,294.85 51.45,311.15 C44.68,321.56 35.56,341.20 33.51,349.79 C31.60,357.79 31.81,372.32 33.94,379.26 C35.71,385.01 43.07,395.07 48.57,399.25 C54.47,403.74 64.27,407.72 72.50,408.98 C81.72,410.39 106.00,409.38 118.36,407.06 ZM 219.13 370.92 C226.25,366.85 228.00,365.40 228.00,363.55 C228.00,361.89 227.09,360.87 224.75,359.91 C222.96,359.17 217.61,356.19 212.85,353.29 C208.09,350.38 203.70,348.00 203.10,348.00 C201.54,348.00 201.80,353.18 203.86,363.00 C205.76,372.03 207.38,376.00 209.17,376.00 C209.77,376.00 214.25,373.72 219.13,370.92 ZM 332.84 349.25 C333.34,348.29 334.08,344.35 334.47,340.50 C334.87,336.65 335.84,329.90 336.62,325.50 C338.55,314.59 340.76,287.44 341.57,264.50 C342.55,236.96 339.72,198.78 334.71,172.00 C333.59,165.99 333.29,165.48 330.72,165.18 C328.61,164.94 327.05,165.75 324.29,168.51 C321.44,171.36 320.07,172.05 318.07,171.65 C314.81,171.00 305.03,173.75 304.36,175.51 C304.08,176.24 304.55,181.48 305.40,187.17 C310.81,223.24 310.58,281.09 304.87,321.24 C303.72,329.34 303.04,337.04 303.37,338.33 C303.95,340.66 309.87,343.70 320.50,347.14 C322.70,347.85 325.39,349.01 326.47,349.72 C329.22,351.50 331.76,351.32 332.84,349.25 ZM 294.53 327.18 C294.89,324.06 295.82,317.45 296.59,312.50 C298.35,301.20 298.35,301.00 296.36,301.00 C293.76,301.00 267.00,319.21 267.03,320.95 C267.06,323.06 291.05,335.05 292.69,333.78 C293.34,333.28 294.17,330.30 294.53,327.18 ZM 258.41 301.83 C267.76,299.46 279.58,290.37 285.49,281.02 C294.37,266.96 294.60,249.87 286.14,233.50 C276.40,214.66 256.00,205.94 234.68,211.50 C226.24,213.69 221.27,216.57 214.91,222.93 C200.62,237.22 196.84,259.72 205.76,277.50 C208.83,283.64 219.85,294.52 226.83,298.31 C236.08,303.34 247.44,304.61 258.41,301.83 ZM 388.41 293.17 C389.95,290.20 399.23,282.59 404.46,279.99 C409.55,277.47 408.88,275.17 400.77,267.46 C392.37,259.46 374.38,243.80 368.50,239.38 C349.99,225.44 351.19,225.25 351.10,242.00 C351.06,250.76 351.39,255.00 352.13,255.00 C352.83,255.00 353.00,256.33 352.60,258.75 C351.26,266.81 350.23,265.28 365.56,278.00 C369.86,281.58 376.11,287.08 379.44,290.23 C382.77,293.38 385.83,295.97 386.22,295.98 C386.62,295.99 387.61,294.72 388.41,293.17 ZM 141.76 257.93 C141.55,231.21 141.25,225.00 140.16,225.00 C139.42,225.00 135.49,227.70 131.42,231.00 C127.35,234.30 123.63,237.00 123.15,237.00 C121.62,237.00 91.74,205.84 83.79,195.96 C75.25,185.34 66.66,169.47 64.92,161.13 C63.81,155.75 64.38,148.04 66.13,144.75 C66.65,143.79 68.96,141.99 71.28,140.75 C74.89,138.83 77.13,138.48 86.78,138.38 C92.99,138.32 98.39,137.95 98.78,137.55 C99.18,137.16 99.50,132.71 99.50,127.67 C99.50,120.00 99.84,118.01 101.59,115.50 C104.48,111.34 105.03,109.43 103.72,108.12 C102.24,106.64 75.91,106.63 68.80,108.10 C55.90,110.77 41.17,120.73 36.58,129.89 C30.81,141.42 30.50,158.40 35.77,174.67 C42.59,195.75 64.64,225.19 95.89,254.95 C104.23,262.90 112.06,270.18 113.28,271.13 C130.90,284.88 140.46,291.83 141.16,291.40 C141.64,291.11 141.91,276.05 141.76,257.93 ZM 408.99 243.25 C433.69,217.90 450.08,193.78 457.04,172.55 C459.91,163.78 460.30,161.29 460.32,151.55 C460.34,141.72 460.03,139.75 457.55,133.72 C452.36,121.09 439.55,111.35 424.30,108.43 C414.63,106.58 393.95,106.61 382.50,108.48 C362.15,111.82 326.07,121.37 310.00,127.66 C287.13,136.62 238.16,158.16 233.84,161.16 C232.38,162.17 224.48,166.34 216.28,170.43 C208.08,174.51 200.90,178.45 200.32,179.18 C198.94,180.90 196.09,201.97 195.60,213.97 C195.45,217.67 198.12,217.59 204.18,213.71 C219.60,203.84 272.04,176.70 280.00,174.47 C281.38,174.08 284.52,172.73 287.00,171.46 C302.77,163.37 322.97,155.67 347.00,148.60 C375.86,140.11 402.50,135.85 413.39,138.00 C424.71,140.22 428.00,143.61 428.00,153.06 C428.00,170.49 413.33,195.12 388.77,218.90 C382.27,225.19 377.00,231.11 377.00,232.11 C377.00,233.11 377.70,234.50 378.55,235.21 C379.41,235.92 381.51,237.96 383.22,239.75 C384.92,241.54 386.92,243.00 387.66,243.00 C388.40,243.00 389.00,243.45 389.00,244.00 C389.00,244.55 389.59,245.00 390.31,245.00 C391.04,245.00 392.92,246.35 394.50,248.00 C396.08,249.65 398.29,251.00 399.41,251.00 C400.63,251.00 404.46,247.90 408.99,243.25 ZM 297.51 209.98 C298.05,209.11 295.83,189.83 294.43,183.21 C293.65,179.56 291.66,179.61 283.71,183.43 C279.61,185.40 274.51,187.62 272.38,188.36 C267.56,190.03 267.17,192.86 271.50,194.86 C275.25,196.60 283.94,202.25 290.50,207.21 C295.88,211.28 296.55,211.54 297.51,209.98 ZM 220.49 157.04 C224.33,155.09 227.61,152.77 227.78,151.90 C228.00,150.78 225.75,149.25 220.08,146.66 C212.20,143.06 208.60,142.23 207.62,143.80 C207.35,144.24 206.40,148.81 205.51,153.95 C203.61,164.92 204.29,166.26 209.99,162.75 C211.92,161.56 216.64,158.99 220.49,157.04 ZM 142.99 148.72 C149.44,145.54 153.25,139.64 153.81,131.98 C155.05,114.76 142.96,102.79 127.56,105.99 C114.63,108.67 108.60,118.47 110.48,133.76 C111.11,138.92 111.67,139.97 116.04,144.21 C124.16,152.06 133.15,153.57 142.99,148.72 ZM 416.00 344.52 C414.62,343.72 412.32,342.57 410.88,341.98 C409.44,341.38 406.43,338.43 404.20,335.41 C399.10,328.54 397.98,322.03 400.42,313.61 C403.57,302.78 412.88,296.03 424.68,296.01 C432.40,296.00 435.48,297.14 440.33,301.81 C446.39,307.64 448.00,311.66 448.00,321.00 C448.00,332.83 443.95,339.76 434.50,344.11 C429.60,346.37 419.56,346.59 416.00,344.52 ZM 429.30 337.38 C434.71,334.65 436.86,331.98 438.09,326.48 C439.72,319.22 438.61,314.58 434.12,309.76 C430.92,306.33 429.63,305.67 425.33,305.26 C418.77,304.63 413.69,307.00 410.16,312.34 C404.98,320.18 407.86,333.15 415.74,337.42 C419.39,339.40 425.34,339.39 429.30,337.38 Z" fill="rgb(253,253,253)"/>
</g>
</svg>